<svg xmlns="http://www.w3.org/2000/svg" xmlns:xlink="http://www.w3.org/1999/xlink" xmlns:lucid="lucid" width="2233" height="3887"><g transform="translate(-74 0)" lucid:page-tab-id="0_0"><path d="M1060 120c0 33.14-26.86 60-60 60s-60-26.86-60-60 26.86-60 60-60 60 26.86 60 60z" stroke="#000" stroke-width="2"/><path d="M860 420a60 60 0 0 1 60-60h160a60 60 0 0 1 60 60 60 60 0 0 1-60 60H920a60 60 0 0 1-60-60z" stroke="#000" stroke-width="2" fill="#fff"/><use xlink:href="#a" transform="matrix(1,0,0,1,865,365) translate(30.401234567901227 59.02777777777778)"/><use xlink:href="#b" transform="matrix(1,0,0,1,865,365) translate(176.88271604938274 59.02777777777778)"/><path d="M1502.53 1080a60 60 0 0 1 60-60h160a60 60 0 0 1 60 60 60 60 0 0 1-60 60h-160a60 60 0 0 1-60-60z" stroke="#000" stroke-width="2" fill="#fff"/><use xlink:href="#c" transform="matrix(1,0,0,1,1507.5332779975538,1025.0000368783312) translate(10.467962962962966 45.27777777777778)"/><use xlink:href="#d" transform="matrix(1,0,0,1,1507.5332779975538,1025.0000368783312) translate(144.85067901234567 45.27777777777778)"/><use xlink:href="#e" transform="matrix(1,0,0,1,1507.5332779975538,1025.0000368783312) translate(99.94327160493827 71.94444444444446)"/><use xlink:href="#f" transform="matrix(1,0,0,1,1507.5332779975538,1025.0000368783312) translate(118.4617901234568 71.94444444444446)"/><path d="M1502.53 1700a60 60 0 0 1 60-60h160a60 60 0 0 1 60 60 60 60 0 0 1-60 60h-160a60 60 0 0 1-60-60z" stroke="#000" stroke-width="2" fill="#fff"/><use xlink:href="#g" transform="matrix(1,0,0,1,1507.5332779975538,1645.0000368783312) translate(49.38771604938271 45.27777777777778)"/><use xlink:href="#h" transform="matrix(1,0,0,1,1507.5332779975538,1645.0000368783312) translate(149.01734567901235 45.27777777777778)"/><use xlink:href="#i" transform="matrix(1,0,0,1,1507.5332779975538,1645.0000368783312) translate(52.47413580246913 71.94444444444446)"/><use xlink:href="#j" transform="matrix(1,0,0,1,1507.5332779975538,1645.0000368783312) translate(117.84450617283952 71.94444444444446)"/><use xlink:href="#k" transform="matrix(1,0,0,1,1507.5332779975538,1645.0000368783312) translate(153.64697530864197 71.94444444444446)"/><path d="M820 2798.6a60 60 0 0 1 60-60h160a60 60 0 0 1 60 60 60 60 0 0 1-60 60H880a60 60 0 0 1-60-60z" stroke="#000" stroke-width="2" fill="#fff"/><use xlink:href="#l" transform="matrix(1,0,0,1,825,2743.5857495592954) translate(92.43827160493828 59.02777777777778)"/><path d="M1140 3178.6a60 60 0 0 1 60-60h160a60 60 0 0 1 60 60 60 60 0 0 1-60 60h-160a60 60 0 0 1-60-60z" stroke="#000" stroke-width="2" fill="#fff"/><use xlink:href="#m" transform="matrix(1,0,0,1,1145,3123.5857495592954) translate(65.37037037037035 59.02777777777778)"/><path d="M1000 760l80 80-80 80-80-80z" stroke="#000" stroke-width="2" fill="#fff"/><path d="M680 886a6 6 0 0 1 6-6h268a6 6 0 0 1 6 6v48a6 6 0 0 1-6 6H686a6 6 0 0 1-6-6z" fill="none"/><use xlink:href="#n" transform="matrix(1,0,0,1,680,880) translate(59.35185185185185 34.44444444444444)"/><use xlink:href="#o" transform="matrix(1,0,0,1,680,880) translate(109.90740740740742 34.44444444444444)"/><use xlink:href="#p" transform="matrix(1,0,0,1,680,880) translate(180.09259259259258 34.44444444444444)"/><path d="M1081.9 840h520.15a6 6 0 0 1 6 6v17.62" stroke="#000" fill="none"/><path d="M1081.93 840.48h-1l.48-.48-.46-.48h1z" stroke="#000" stroke-width=".05"/><path d="M1608.05 878.38l-4.63-14.26h9.27z" stroke="#000"/><path d="M1000 786a6 6 0 0 1 6-6h228a6 6 0 0 1 6 6v48a6 6 0 0 1-6 6h-228a6 6 0 0 1-6-6z" fill="none"/><use xlink:href="#q" transform="matrix(1,0,0,1,1000,780) translate(96.57407407407408 34.44444444444444)"/><path d="M1000 481.5v260.7" stroke="#000" fill="none"/><path d="M1000.48 481.5h-.96v-.5h.96z" stroke="#000" stroke-width=".05"/><path d="M1000 756.97l-4.63-14.27h9.26z" stroke="#000"/><path d="M720 786a6 6 0 0 1 6-6h228a6 6 0 0 1 6 6v48a6 6 0 0 1-6 6H726a6 6 0 0 1-6-6z" fill="none"/><use xlink:href="#r" transform="matrix(1,0,0,1,720,780) translate(97.22222222222223 34.44444444444444)"/><path d="M1642.53 1280l80 80-80 80-80-80z" stroke="#000" stroke-width="2" fill="#fff"/><path d="M1680 1286a6 6 0 0 1 6-6h362.4a6 6 0 0 1 6 6v48a6 6 0 0 1-6 6H1686a6 6 0 0 1-6-6z" fill="none"/><use xlink:href="#n" transform="matrix(1,0,0,1,1680,1280.0000368783312) translate(17.31481481481478 34.44444444444444)"/><use xlink:href="#s" transform="matrix(1,0,0,1,1680,1280.0000368783312) translate(67.87037037037035 34.44444444444444)"/><use xlink:href="#t" transform="matrix(1,0,0,1,1680,1280.0000368783312) translate(108.54938271604937 34.44444444444444)"/><use xlink:href="#u" transform="matrix(1,0,0,1,1680,1280.0000368783312) translate(249.2283950617284 34.44444444444444)"/><use xlink:href="#v" transform="matrix(1,0,0,1,1680,1280.0000368783312) translate(280.0925925925926 34.44444444444444)"/><use xlink:href="#p" transform="matrix(1,0,0,1,1680,1280.0000368783312) translate(317.1296296296297 34.44444444444444)"/><path d="M1642.5 1141.5v120.72" stroke="#000" fill="none"/><path d="M1643 1141.5h-.96v-.5h.95z" stroke="#000" stroke-width=".05"/><path d="M1642.5 1277l-4.62-14.28h9.27z" stroke="#000"/><path d="M1562.53 1446a6 6 0 0 1 6-6h228a6 6 0 0 1 6 6v48a6 6 0 0 1-6 6h-228a6 6 0 0 1-6-6z" fill="none"/><use xlink:href="#q" transform="matrix(1,0,0,1,1562.5332779975538,1440.0000368783312) translate(96.57407407407408 34.44444444444444)"/><path d="M260 750a30 30 0 0 1 30-30h546.22a30 30 0 0 1 30 30 30 30 0 0 1-30 30H290a30 30 0 0 1-30-30z" stroke="#000" stroke-opacity="0" stroke-width="4"/><path d="M918.1 840H771.5a6 6 0 0 1-6-6v-37.62" stroke="#000" fill="none"/><path d="M918.6 840l.46.48h-1v-.96h1z" stroke="#000" stroke-width=".05"/><path d="M765.5 781.62l4.65 14.26h-9.27z" stroke="#000"/><path d="M1560.62 1360h-901.2a6 6 0 0 1-6-6V796.38" stroke="#000" fill="none"/><path d="M1561.12 1360l.47.47h-1v-.94h1z" stroke="#000" stroke-width=".05"/><path d="M653.4 781.62l4.64 14.26h-9.27z" stroke="#000"/><path d="M1382.53 1306a6 6 0 0 1 6-6h228a6 6 0 0 1 6 6v48a6 6 0 0 1-6 6h-228a6 6 0 0 1-6-6z" fill="none"/><use xlink:href="#r" transform="matrix(1,0,0,1,1382.5332779975538,1300.0000368783312) translate(97.22222222222223 34.44444444444444)"/><path d="M1642.53 1860l80 80-80 80-80-80z" stroke="#000" stroke-width="2" fill="#fff"/><path d="M1642.5 1761.5v80.72" stroke="#000" fill="none"/><path d="M1643 1761.5h-.96v-.5h.95z" stroke="#000" stroke-width=".05"/><path d="M1642.5 1857l-4.62-14.28h9.27z" stroke="#000"/><path d="M1722.53 1886a6 6 0 0 1 6-6h288a6 6 0 0 1 6 6v48a6 6 0 0 1-6 6h-288a6 6 0 0 1-6-6z" fill="none"/><use xlink:href="#n" transform="matrix(1,0,0,1,1722.5332779975538,1880.0000368783312) translate(21.697530864197518 21.111111111111114)"/><use xlink:href="#s" transform="matrix(1,0,0,1,1722.5332779975538,1880.0000368783312) translate(72.25308641975309 21.111111111111114)"/><use xlink:href="#t" transform="matrix(1,0,0,1,1722.5332779975538,1880.0000368783312) translate(112.9320987654321 21.111111111111114)"/><use xlink:href="#w" transform="matrix(1,0,0,1,1722.5332779975538,1880.0000368783312) translate(253.61111111111114 21.111111111111114)"/><use xlink:href="#x" transform="matrix(1,0,0,1,1722.5332779975538,1880.0000368783312) translate(6.419753086419746 47.777777777777786)"/><use xlink:href="#y" transform="matrix(1,0,0,1,1722.5332779975538,1880.0000368783312) translate(95.18518518518518 47.777777777777786)"/><use xlink:href="#z" transform="matrix(1,0,0,1,1722.5332779975538,1880.0000368783312) translate(147.03703703703704 47.777777777777786)"/><use xlink:href="#A" transform="matrix(1,0,0,1,1722.5332779975538,1880.0000368783312) translate(158.08641975308643 47.777777777777786)"/><use xlink:href="#B" transform="matrix(1,0,0,1,1722.5332779975538,1880.0000368783312) translate(193.8888888888889 47.777777777777786)"/><path d="M1502.53 2478.6a60 60 0 0 1 60-60h160a60 60 0 0 1 60 60 60 60 0 0 1-60 60h-160a60 60 0 0 1-60-60z" stroke="#000" stroke-width="2" fill="#fff"/><use xlink:href="#C" transform="matrix(1,0,0,1,1507.5332779975538,2423.5857864376267) translate(42.623456790123456 59.02777777777778)"/><use xlink:href="#D" transform="matrix(1,0,0,1,1507.5332779975538,2423.5857864376267) translate(164.5987654320988 59.02777777777778)"/><path d="M1393.75 2098.5v75.5a6 6 0 0 1-6 6H509.47a6 6 0 0 1-6-6V796.38" stroke="#000" fill="none"/><path d="M1394.22 2098.5h-.94v-.5h.94z" stroke="#000" stroke-width=".05"/><path d="M503.47 781.62l4.64 14.26h-9.26z" stroke="#000"/><path d="M1362.53 1886a6 6 0 0 1 6-6h228a6 6 0 0 1 6 6v48a6 6 0 0 1-6 6h-228a6 6 0 0 1-6-6z" fill="none"/><use xlink:href="#r" transform="matrix(1,0,0,1,1362.5332779975538,1880.0000368783312) translate(97.22222222222223 34.44444444444444)"/><path d="M1642.53 2618.6l80 80-80 80-80-80z" stroke="#000" stroke-width="2" fill="#fff"/><path d="M1228.14 2724.6a6 6 0 0 1 6-6h362.4a6 6 0 0 1 6 6v48a6 6 0 0 1-6 6h-362.4a6 6 0 0 1-6-6z" fill="none"/><use xlink:href="#n" transform="matrix(1,0,0,1,1228.1408390372067,2718.5857864376267) translate(12.314814814814781 34.44444444444444)"/><use xlink:href="#s" transform="matrix(1,0,0,1,1228.1408390372067,2718.5857864376267) translate(62.870370370370345 34.44444444444444)"/><use xlink:href="#E" transform="matrix(1,0,0,1,1228.1408390372067,2718.5857864376267) translate(103.54938271604937 34.44444444444444)"/><use xlink:href="#F" transform="matrix(1,0,0,1,1228.1408390372067,2718.5857864376267) translate(222.00617283950618 34.44444444444444)"/><path d="M1642.5 2540.1v60.7" stroke="#000" fill="none"/><path d="M1643 2540.1h-.96v-.5h.95z" stroke="#000" stroke-width=".05"/><path d="M1642.5 2615.57l-4.62-14.26h9.27z" stroke="#000"/><path d="M1339.42 3588a30 30 0 0 1 30-30h546.22a30 30 0 0 1 30 30 30 30 0 0 1-30 30h-546.22a30 30 0 0 1-30-30z" stroke="#000" stroke-opacity="0" stroke-width="4"/><path d="M1642.53 2780.5v761.12" stroke="#000" fill="none"/><path d="M1643 2780.5h-.94v-.97l.47.47.48-.47z" stroke="#000" stroke-width=".05"/><path d="M1642.53 3556.38l-4.63-14.26h9.27z" stroke="#000"/><path d="M1454.6 3618.5v33.5a6 6 0 0 1-6 6H361.8a6 6 0 0 1-6-6V796.38" stroke="#000" fill="none"/><path d="M1455.08 3618.5h-.95v-.5h.95z" stroke="#000" stroke-width=".05"/><path d="M355.8 781.62l4.63 14.26h-9.27z" stroke="#000"/><path d="M1831 3618.5v35.5a6 6 0 0 0 6 6h159.53a6 6 0 0 0 6-6V2262.6a6 6 0 0 0-6-6h-274.55a6 6 0 0 0-6 6v19.6" stroke="#000" fill="none"/><path d="M1831.46 3618.5h-.95v-.5h.96z" stroke="#000" stroke-width=".05"/><path d="M1715.98 2296.97l-4.63-14.27h9.27z" stroke="#000"/><path d="M1795.7 3618.5v73.5a6 6 0 0 0 6 6h234.83a6 6 0 0 0 6-6V1486a6 6 0 0 0-6-6H1723.3a6 6 0 0 0-6 6v17.62" stroke="#000" fill="none"/><path d="M1796.18 3618.5h-.95v-.5h.95z" stroke="#000" stroke-width=".05"/><path d="M1717.3 1518.38l-4.65-14.26h9.27z" stroke="#000"/><path d="M1755.2 3618.5V3732a6 6 0 0 0 6 6h315.33a6 6 0 0 0 6-6V846a6 6 0 0 0-6-6H1724.6a6 6 0 0 0-6 6v17.62" stroke="#000" fill="none"/><path d="M1755.66 3618.5h-.95v-.5h.96z" stroke="#000" stroke-width=".05"/><path d="M1718.6 878.38l-4.64-14.26h9.27z" stroke="#000"/><path d="M1502.53 2328.6a30 30 0 0 1 30-30h220a30 30 0 0 1 30 30 30 30 0 0 1-30 30h-220a30 30 0 0 1-30-30z" stroke="#000" stroke-opacity="0" stroke-width="4"/><path d="M1642.53 2021.9v260.3" stroke="#000" fill="none"/><path d="M1642.53 2021.4l.48-.46v1h-.94v-1z" stroke="#000" stroke-width=".05"/><path d="M1642.53 2296.97l-4.63-14.27h9.27z" stroke="#000"/><path d="M1642.53 2359.1v42.1" stroke="#000" fill="none"/><path d="M1643 2359.1h-.94v-.5h.95z" stroke="#000" stroke-width=".05"/><path d="M1642.53 2415.97l-4.63-14.27h9.27z" stroke="#000"/><path d="M1562.53 2046a6 6 0 0 1 6-6h228a6 6 0 0 1 6 6v48a6 6 0 0 1-6 6h-228a6 6 0 0 1-6-6z" fill="none"/><use xlink:href="#q" transform="matrix(1,0,0,1,1562.5332779975538,2040.0000368783312) translate(96.57407407407408 34.44444444444444)"/><path d="M1502.53 1550a30 30 0 0 1 30-30h220a30 30 0 0 1 30 30 30 30 0 0 1-30 30h-220a30 30 0 0 1-30-30z" stroke="#000" stroke-opacity="0" stroke-width="4"/><path d="M1642.53 1441.9v61.72" stroke="#000" fill="none"/><path d="M1642.53 1441.4l.48-.46v1h-.94v-1z" stroke="#000" stroke-width=".05"/><path d="M1642.53 1518.38l-4.63-14.26h9.27z" stroke="#000"/><path d="M1642.53 1580.5v42.12" stroke="#000" fill="none"/><path d="M1643 1580.5h-.94v-.5h.95z" stroke="#000" stroke-width=".05"/><path d="M1642.53 1637.38l-4.63-14.26h9.27z" stroke="#000"/><path d="M1502.53 910a30 30 0 0 1 30-30h220a30 30 0 0 1 30 30 30 30 0 0 1-30 30h-220a30 30 0 0 1-30-30z" stroke="#000" stroke-opacity="0" stroke-width="4"/><path d="M1642.53 940.5v62.12" stroke="#000" fill="none"/><path d="M1643 940.5h-.94v-.5h.95z" stroke="#000" stroke-width=".05"/><path d="M1642.53 1017.38l-4.63-14.26h9.27z" stroke="#000"/><path d="M1579.25 2804.6a6 6 0 0 1 6-6h228a6 6 0 0 1 6 6v48a6 6 0 0 1-6 6h-228a6 6 0 0 1-6-6z" fill="none"/><use xlink:href="#r" transform="matrix(1,0,0,1,1579.2544643296897,2798.5857495592954) translate(97.22222222222223 34.44444444444444)"/><path d="M1560.62 2698.6H966a6 6 0 0 0-6 6v16.6" stroke="#000" fill="none"/><path d="M1561.12 2698.6l.47.46h-1v-.95h1z" stroke="#000" stroke-width=".05"/><path d="M960 2735.97l-4.63-14.27h9.26z" stroke="#000"/><path d="M1380 2644.6a6 6 0 0 1 6-6h228a6 6 0 0 1 6 6v48a6 6 0 0 1-6 6h-228a6 6 0 0 1-6-6z" fill="none"/><use xlink:href="#q" transform="matrix(1,0,0,1,1380,2638.585823315958) translate(96.57407407407408 34.44444444444444)"/><path d="M960 2958.6l80 80-80 80-80-80z" stroke="#000" stroke-width="2" fill="#fff"/><path d="M600 2984.6a6 6 0 0 1 6-6h362.4a6 6 0 0 1 6 6v48a6 6 0 0 1-6 6H606a6 6 0 0 1-6-6z" fill="none"/><use xlink:href="#G" transform="matrix(1,0,0,1,600,2978.585749559296) translate(88.20987654320987 34.44444444444444)"/><use xlink:href="#H" transform="matrix(1,0,0,1,600,2978.585749559296) translate(197.96296296296296 34.44444444444444)"/><path d="M959.98 2860.1v80.7" stroke="#000" fill="none"/><path d="M960.45 2860.1h-.95v-.5h.95z" stroke="#000" stroke-width=".05"/><path d="M959.98 2955.57l-4.64-14.26h9.27z" stroke="#000"/><path d="M1041.9 3038.6H1274a6 6 0 0 1 6 6v56.6" stroke="#000" fill="none"/><path d="M1041.93 3039.06h-1l.48-.47-.46-.5h1z" stroke="#000" stroke-width=".05"/><path d="M1280 3115.97l-4.63-14.27h9.27z" stroke="#000"/><path d="M960 2984.6a6 6 0 0 1 6-6h228a6 6 0 0 1 6 6v48a6 6 0 0 1-6 6H966a6 6 0 0 1-6-6z" fill="none"/><use xlink:href="#q" transform="matrix(1,0,0,1,960,2978.585749559296) translate(96.57407407407408 34.44444444444444)"/><path d="M660 3310.6a30 30 0 0 1 30-30h220a30 30 0 0 1 30 30 30 30 0 0 1-30 30H690a30 30 0 0 1-30-30z" stroke="#000" stroke-opacity="0" stroke-width="4"/><path d="M960 3120.5v73.8a6 6 0 0 1-6 6H806a6 6 0 0 0-6 6v57.9" stroke="#000" fill="none"/><path d="M960 3120l.48-.47v.98h-.96v-.97z" stroke="#000" stroke-width=".05"/><path d="M800 3278.97l-4.63-14.27h9.26z" stroke="#000"/><path d="M800 3123.17a6 6 0 0 1 6-6h228a6 6 0 0 1 6 6v48a6 6 0 0 1-6 6H806a6 6 0 0 1-6-6z" fill="none"/><use xlink:href="#r" transform="matrix(1,0,0,1,800,3117.1715359969216) translate(97.22222222222223 34.44444444444444)"/><path d="M735 3504a60 60 0 0 1 60-60h160a60 60 0 0 1 60 60 60 60 0 0 1-60 60H795a60 60 0 0 1-60-60z" stroke="#000" stroke-width="2" fill="#fff"/><use xlink:href="#I" transform="matrix(1,0,0,1,739.9999921874876,3448.999791759989) translate(16.604938271604937 59.02777777777778)"/><use xlink:href="#J" transform="matrix(1,0,0,1,739.9999921874876,3448.999791759989) translate(105.43209876543209 59.02777777777778)"/><path d="M726.92 3341.1v58.9a6 6 0 0 1-6 6H505.5a6 6 0 0 1-6-6V2264.6a6 6 0 0 1 6-6h1057.44a6 6 0 0 1 6 6v17.6" stroke="#000" fill="none"/><path d="M727.4 3341.1h-.95v-.5h.95z" stroke="#000" stroke-width=".05"/><path d="M1568.94 2296.97l-4.63-14.27h9.28z" stroke="#000"/><path d="M1160 2068a30 30 0 0 1 30-30h220a30 30 0 0 1 30 30 30 30 0 0 1-30 30h-220a30 30 0 0 1-30-30z" stroke="#000" stroke-opacity="0" stroke-width="4"/><path d="M1560.62 1940H1306a6 6 0 0 0-6 6v75.62" stroke="#000" fill="none"/><path d="M1561.12 1940l.47.47h-1v-.94h1z" stroke="#000" stroke-width=".05"/><path d="M1300 2036.38l-4.63-14.26h9.27z" stroke="#000"/><path d="M1299.95 2098.5v35.5a6 6 0 0 1-6 6H1126a6 6 0 0 1-6-6v-650a6 6 0 0 1 6-6h434.1a6 6 0 0 1 6 6v19.62" stroke="#000" fill="none"/><path d="M1300.42 2098.5h-.95v-.5h.95z" stroke="#000" stroke-width=".05"/><path d="M1566.1 1518.38l-4.64-14.26h9.27z" stroke="#000"/><path d="M875 3341.1v85.52" stroke="#000" fill="none"/><path d="M875.48 3341.1h-.96v-.5h.96z" stroke="#000" stroke-width=".05"/><path d="M875 3441.38l-4.63-14.26h9.26z" stroke="#000"/><path d="M1340 3384c0 33.14-26.86 60-60 60s-60-26.86-60-60 26.86-60 60-60 60 26.86 60 60z" stroke="#000" stroke-width="2"/><path d="M1356 3384c0 41.97-34.03 76-76 76s-76-34.03-76-76 34.03-76 76-76 76 34.03 76 76z" stroke="#000" stroke-width="3" fill-opacity="0"/><path d="M1279.98 3240.1v50.02" stroke="#000" fill="none"/><path d="M1280.45 3240.1h-.95v-.5h.95z" stroke="#000" stroke-width=".05"/><path d="M1279.98 3304.88l-4.64-14.26h9.27z" stroke="#000"/><path d="M260 590a30 30 0 0 1 30-30h546.22a30 30 0 0 1 30 30 30 30 0 0 1-30 30H290a30 30 0 0 1-30-30z" stroke="#000" stroke-opacity="0" stroke-width="4"/><path d="M563.1 719.5v-83.12" stroke="#000" fill="none"/><path d="M563.58 720h-.95v-.5h.95z" stroke="#000" stroke-width=".05"/><path d="M563.1 621.62l4.64 14.26h-9.27z" stroke="#000"/><path d="M709.9 559.5V426a6 6 0 0 1 6-6h126.7" stroke="#000" fill="none"/><path d="M710.37 560h-.95v-.5h.95z" stroke="#000" stroke-width=".05"/><path d="M857.38 420l-14.27 4.63v-9.26z" stroke="#000"/><path d="M280 420c0 33.14-26.86 60-60 60s-60-26.86-60-60 26.86-60 60-60 60 26.86 60 60z" stroke="#000" stroke-width="4" fill-opacity="0"/><path d="M410 559.5V426a6 6 0 0 0-6-6H298.4" stroke="#000" fill="none"/><path d="M410.5 560h-.96v-.5h.94z" stroke="#000" stroke-width=".05"/><path d="M283.62 420l14.26-4.63v9.26z" stroke="#000"/><g><path d="M178.9 461.1l82.2-82.2" stroke="#000" stroke-width="4" stroke-linecap="round" fill="none"/></g><g><path d="M261.1 461.1l-82.2-82.2" stroke="#000" stroke-width="4" stroke-linecap="round" fill="none"/></g><path d="M1000 181.5v161.12" stroke="#000" fill="none"/><path d="M1000 181l.48-.02v.53h-.96V181z" stroke="#000" stroke-width=".05"/><path d="M1000 357.38l-4.63-14.26h9.26z" stroke="#000"/><defs><path fill="#3a414a" d="M266 0h-40l-56-210L115 0H75L2-248h35L96-30l15-64 43-154h32l59 218 59-218h35" id="K"/><path fill="#3a414a" d="M179-190L93 31C79 59 56 82 12 73V49c39 6 53-20 64-50L1-190h34L92-34l54-156h33" id="L"/><path fill="#3a414a" d="M135-143c-3-34-86-38-87 0 15 53 115 12 119 90S17 21 10-45l28-5c4 36 97 45 98 0-10-56-113-15-118-90-4-57 82-63 122-42 12 7 21 19 24 35" id="M"/><path fill="#3a414a" d="M9 0v-24l116-142H16v-24h144v24L44-24h123V0H9" id="N"/><path fill="#3a414a" d="M84 4C-5 8 30-112 23-190h32v120c0 31 7 50 39 49 72-2 45-101 50-169h31l1 190h-30c-1-10 1-25-2-33-11 22-28 36-60 37" id="O"/><path fill="#3a414a" d="M143 0L79-87 56-68V0H24v-261h32v163l83-92h37l-77 82L181 0h-38" id="P"/><path fill="#3a414a" d="M24-231v-30h32v30H24zM24 0v-190h32V0H24" id="Q"/><path fill="#3a414a" d="M206 0h-36l-40-164L89 0H53L-1-190h32L70-26l43-164h34l41 164 42-164h31" id="R"/><path fill="#3a414a" d="M141-36C126-15 110 5 73 4 37 3 15-17 15-53c-1-64 63-63 125-63 3-35-9-54-41-54-24 1-41 7-42 31l-33-3c5-37 33-52 76-52 45 0 72 20 72 64v82c-1 20 7 32 28 27v20c-31 9-61-2-59-35zM48-53c0 20 12 33 32 33 41-3 63-29 60-74-43 2-92-5-92 41" id="S"/><path fill="#3a414a" d="M117-194c89-4 53 116 60 194h-32v-121c0-31-8-49-39-48C34-167 62-67 57 0H25l-1-190h30c1 10-1 24 2 32 11-22 29-35 61-36" id="T"/><path fill="#3a414a" d="M100-194c63 0 86 42 84 106H49c0 40 14 67 53 68 26 1 43-12 49-29l28 8c-11 28-37 45-77 45C44 4 14-33 15-96c1-61 26-98 85-98zm52 81c6-60-76-77-97-28-3 7-6 17-6 28h103" id="U"/><g id="a"><use transform="matrix(0.06172839506172839,0,0,0.06172839506172839,0,0)" xlink:href="#K"/><use transform="matrix(0.06172839506172839,0,0,0.06172839506172839,20.740740740740737,0)" xlink:href="#L"/><use transform="matrix(0.06172839506172839,0,0,0.06172839506172839,31.85185185185185,0)" xlink:href="#M"/><use transform="matrix(0.06172839506172839,0,0,0.06172839506172839,42.96296296296296,0)" xlink:href="#N"/><use transform="matrix(0.06172839506172839,0,0,0.06172839506172839,54.074074074074076,0)" xlink:href="#O"/><use transform="matrix(0.06172839506172839,0,0,0.06172839506172839,66.41975308641976,0)" xlink:href="#P"/><use transform="matrix(0.06172839506172839,0,0,0.06172839506172839,77.53086419753087,0)" xlink:href="#Q"/><use transform="matrix(0.06172839506172839,0,0,0.06172839506172839,82.40740740740742,0)" xlink:href="#R"/><use transform="matrix(0.06172839506172839,0,0,0.06172839506172839,98.39506172839508,0)" xlink:href="#S"/><use transform="matrix(0.06172839506172839,0,0,0.06172839506172839,110.74074074074076,0)" xlink:href="#T"/><use transform="matrix(0.06172839506172839,0,0,0.06172839506172839,123.08641975308645,0)" xlink:href="#Q"/><use transform="matrix(0.06172839506172839,0,0,0.06172839506172839,127.96296296296299,0)" xlink:href="#U"/></g><path fill="#3a414a" d="M101-234c-31-9-42 10-38 44h38v23H63V0H32v-167H5v-23h27c-7-52 17-82 69-68v24" id="V"/><path fill="#3a414a" d="M24 0v-261h32V0H24" id="W"/><path fill="#3a414a" d="M210-169c-67 3-38 105-44 169h-31v-121c0-29-5-50-35-48C34-165 62-65 56 0H25l-1-190h30c1 10-1 24 2 32 10-44 99-50 107 0 11-21 27-35 58-36 85-2 47 119 55 194h-31v-121c0-29-5-49-35-48" id="X"/><path fill="#3a414a" d="M100-194c62-1 85 37 85 99 1 63-27 99-86 99S16-35 15-95c0-66 28-99 85-99zM99-20c44 1 53-31 53-75 0-43-8-75-51-75s-53 32-53 75 10 74 51 75zM76-211c8-23 27-35 38-54h36v5l-58 49H76" id="Y"/><g id="b"><use transform="matrix(0.06172839506172839,0,0,0.06172839506172839,0,0)" xlink:href="#V"/><use transform="matrix(0.06172839506172839,0,0,0.06172839506172839,6.172839506172839,0)" xlink:href="#Q"/><use transform="matrix(0.06172839506172839,0,0,0.06172839506172839,11.049382716049383,0)" xlink:href="#W"/><use transform="matrix(0.06172839506172839,0,0,0.06172839506172839,15.925925925925926,0)" xlink:href="#X"/><use transform="matrix(0.06172839506172839,0,0,0.06172839506172839,34.382716049382715,0)" xlink:href="#Y"/><use transform="matrix(0.06172839506172839,0,0,0.06172839506172839,46.72839506172839,0)" xlink:href="#R"/></g><path fill="#3a414a" d="M185-189c-5-48-123-54-124 2 14 75 158 14 163 119 3 78-121 87-175 55-17-10-28-26-33-46l33-7c5 56 141 63 141-1 0-78-155-14-162-118-5-82 145-84 179-34 5 7 8 16 11 25" id="Z"/><path fill="#3a414a" d="M115-194c55 1 70 41 70 98S169 2 115 4C84 4 66-9 55-30l1 105H24l-1-265h31l2 30c10-21 28-34 59-34zm-8 174c40 0 45-34 45-75s-6-73-45-74c-42 0-51 32-51 76 0 43 10 73 51 73" id="aa"/><path fill="#3a414a" d="M114-163C36-179 61-72 57 0H25l-1-190h30c1 12-1 29 2 39 6-27 23-49 58-41v29" id="ab"/><path fill="#3a414a" d="M85-194c31 0 48 13 60 33l-1-100h32l1 261h-30c-2-10 0-23-3-31C134-8 116 4 85 4 32 4 16-35 15-94c0-66 23-100 70-100zm9 24c-40 0-46 34-46 75 0 40 6 74 45 74 42 0 51-32 51-76 0-42-9-74-50-73" id="ac"/><g id="c"><use transform="matrix(0.06172839506172839,0,0,0.06172839506172839,0,0)" xlink:href="#Z"/><use transform="matrix(0.06172839506172839,0,0,0.06172839506172839,14.814814814814813,0)" xlink:href="#aa"/><use transform="matrix(0.06172839506172839,0,0,0.06172839506172839,27.160493827160494,0)" xlink:href="#ab"/><use transform="matrix(0.06172839506172839,0,0,0.06172839506172839,34.50617283950617,0)" xlink:href="#S"/><use transform="matrix(0.06172839506172839,0,0,0.06172839506172839,46.85185185185185,0)" xlink:href="#R"/><use transform="matrix(0.06172839506172839,0,0,0.06172839506172839,62.8395061728395,0)" xlink:href="#ac"/><use transform="matrix(0.06172839506172839,0,0,0.06172839506172839,75.18518518518518,0)" xlink:href="#N"/><use transform="matrix(0.06172839506172839,0,0,0.06172839506172839,86.29629629629629,0)" xlink:href="#U"/><use transform="matrix(0.06172839506172839,0,0,0.06172839506172839,98.64197530864197,0)" xlink:href="#T"/><use transform="matrix(0.06172839506172839,0,0,0.06172839506172839,110.98765432098766,0)" xlink:href="#Q"/><use transform="matrix(0.06172839506172839,0,0,0.06172839506172839,115.8641975308642,0)" xlink:href="#U"/></g><path fill="#3a414a" d="M96-169c-40 0-48 33-48 73s9 75 48 75c24 0 41-14 43-38l32 2c-6 37-31 61-74 61-59 0-76-41-82-99-10-93 101-131 147-64 4 7 5 14 7 22l-32 3c-4-21-16-35-41-35" id="ad"/><path fill="#3a414a" d="M177-190C167-65 218 103 67 71c-23-6-38-20-44-43l32-5c15 47 100 32 89-28v-30C133-14 115 1 83 1 29 1 15-40 15-95c0-56 16-97 71-98 29-1 48 16 59 35 1-10 0-23 2-32h30zM94-22c36 0 50-32 50-73 0-42-14-75-50-75-39 0-46 34-46 75s6 73 46 73" id="ae"/><path fill="#3a414a" d="M24 0v-95L3-83v-28l21-12v-138h32v120l22-13v28l-22 12V0H24" id="af"/><g id="d"><use transform="matrix(0.06172839506172839,0,0,0.06172839506172839,0,0)" xlink:href="#M"/><use transform="matrix(0.06172839506172839,0,0,0.06172839506172839,11.11111111111111,0)" xlink:href="#N"/><use transform="matrix(0.06172839506172839,0,0,0.06172839506172839,22.22222222222222,0)" xlink:href="#ad"/><use transform="matrix(0.06172839506172839,0,0,0.06172839506172839,33.33333333333333,0)" xlink:href="#N"/><use transform="matrix(0.06172839506172839,0,0,0.06172839506172839,44.44444444444444,0)" xlink:href="#U"/><use transform="matrix(0.06172839506172839,0,0,0.06172839506172839,56.79012345679012,0)" xlink:href="#ae"/><use transform="matrix(0.06172839506172839,0,0,0.06172839506172839,69.1358024691358,0)" xlink:href="#Y"/><use transform="matrix(0.06172839506172839,0,0,0.06172839506172839,81.48148148148148,0)" xlink:href="#af"/><use transform="matrix(0.06172839506172839,0,0,0.06172839506172839,86.35802469135803,0)" xlink:href="#Y"/><use transform="matrix(0.06172839506172839,0,0,0.06172839506172839,98.70370370370371,0)" xlink:href="#R"/></g><path fill="#3a414a" d="M100-194c62-1 85 37 85 99 1 63-27 99-86 99S16-35 15-95c0-66 28-99 85-99zM99-20c44 1 53-31 53-75 0-43-8-75-51-75s-53 32-53 75 10 74 51 75" id="ag"/><use transform="matrix(0.06172839506172839,0,0,0.06172839506172839,0,0)" xlink:href="#ag" id="e"/><g id="f"><use transform="matrix(0.06172839506172839,0,0,0.06172839506172839,0,0)" xlink:href="#V"/><use transform="matrix(0.06172839506172839,0,0,0.06172839506172839,6.172839506172839,0)" xlink:href="#Q"/><use transform="matrix(0.06172839506172839,0,0,0.06172839506172839,11.049382716049383,0)" xlink:href="#W"/><use transform="matrix(0.06172839506172839,0,0,0.06172839506172839,15.925925925925926,0)" xlink:href="#X"/><use transform="matrix(0.06172839506172839,0,0,0.06172839506172839,34.382716049382715,0)" xlink:href="#Q"/><use transform="matrix(0.06172839506172839,0,0,0.06172839506172839,39.25925925925926,0)" xlink:href="#U"/></g><path fill="#3a414a" d="M115-194c53 0 69 39 70 98 0 66-23 100-70 100C84 3 66-7 56-30L54 0H23l1-261h32v101c10-23 28-34 59-34zm-8 174c40 0 45-34 45-75 0-40-5-75-45-74-42 0-51 32-51 76 0 43 10 73 51 73" id="ah"/><g id="g"><use transform="matrix(0.06172839506172839,0,0,0.06172839506172839,0,0)" xlink:href="#K"/><use transform="matrix(0.06172839506172839,0,0,0.06172839506172839,20.740740740740737,0)" xlink:href="#L"/><use transform="matrix(0.06172839506172839,0,0,0.06172839506172839,31.85185185185185,0)" xlink:href="#ah"/><use transform="matrix(0.06172839506172839,0,0,0.06172839506172839,44.197530864197525,0)" xlink:href="#ab"/><use transform="matrix(0.06172839506172839,0,0,0.06172839506172839,51.5432098765432,0)" xlink:href="#S"/><use transform="matrix(0.06172839506172839,0,0,0.06172839506172839,63.888888888888886,0)" xlink:href="#T"/><use transform="matrix(0.06172839506172839,0,0,0.06172839506172839,76.23456790123456,0)" xlink:href="#Q"/><use transform="matrix(0.06172839506172839,0,0,0.06172839506172839,81.1111111111111,0)" xlink:href="#U"/></g><g id="h"><use transform="matrix(0.06172839506172839,0,0,0.06172839506172839,0,0)" xlink:href="#M"/><use transform="matrix(0.06172839506172839,0,0,0.06172839506172839,11.11111111111111,0)" xlink:href="#U"/><use transform="matrix(0.06172839506172839,0,0,0.06172839506172839,23.45679012345679,0)" xlink:href="#S"/><use transform="matrix(0.06172839506172839,0,0,0.06172839506172839,35.80246913580247,0)" xlink:href="#T"/><use transform="matrix(0.06172839506172839,0,0,0.06172839506172839,48.148148148148145,0)" xlink:href="#M"/><use transform="matrix(0.06172839506172839,0,0,0.06172839506172839,59.25925925925925,0)" xlink:href="#O"/></g><path fill="#3a414a" d="M87 75C49 33 22-17 22-94c0-76 28-126 65-167h31c-38 41-64 92-64 168S80 34 118 75H87" id="ai"/><path fill="#3a414a" d="M68-38c1 34 0 65-14 84H32c9-13 17-26 17-46H33v-38h35" id="aj"/><g id="i"><use transform="matrix(0.06172839506172839,0,0,0.06172839506172839,0,0)" xlink:href="#ai"/><use transform="matrix(0.06172839506172839,0,0,0.06172839506172839,7.345679012345679,0)" xlink:href="#ad"/><use transform="matrix(0.06172839506172839,0,0,0.06172839506172839,18.45679012345679,0)" xlink:href="#N"/><use transform="matrix(0.06172839506172839,0,0,0.06172839506172839,29.567901234567902,0)" xlink:href="#S"/><use transform="matrix(0.06172839506172839,0,0,0.06172839506172839,41.91358024691358,0)" xlink:href="#M"/><use transform="matrix(0.06172839506172839,0,0,0.06172839506172839,53.0246913580247,0)" xlink:href="#aj"/></g><path fill="#3a414a" d="M59-47c-2 24 18 29 38 22v24C64 9 27 4 27-40v-127H5v-23h24l9-43h21v43h35v23H59v120" id="ak"/><g id="j"><use transform="matrix(0.06172839506172839,0,0,0.06172839506172839,0,0)" xlink:href="#ak"/><use transform="matrix(0.06172839506172839,0,0,0.06172839506172839,6.172839506172839,0)" xlink:href="#L"/><use transform="matrix(0.06172839506172839,0,0,0.06172839506172839,17.28395061728395,0)" xlink:href="#aa"/></g><path fill="#3a414a" d="M24-231v-30h32v30H24zM-9 49c24 4 33-6 33-30v-209h32V24c2 40-23 58-65 49V49" id="al"/><path fill="#3a414a" d="M33-261c38 41 65 92 65 168S71 34 33 75H2C39 34 66-17 66-93S39-220 2-261h31" id="am"/><g id="k"><use transform="matrix(0.06172839506172839,0,0,0.06172839506172839,0,0)" xlink:href="#U"/><use transform="matrix(0.06172839506172839,0,0,0.06172839506172839,12.345679012345679,0)" xlink:href="#X"/><use transform="matrix(0.06172839506172839,0,0,0.06172839506172839,30.80246913580247,0)" xlink:href="#Q"/><use transform="matrix(0.06172839506172839,0,0,0.06172839506172839,35.67901234567901,0)" xlink:href="#M"/><use transform="matrix(0.06172839506172839,0,0,0.06172839506172839,46.79012345679013,0)" xlink:href="#al"/><use transform="matrix(0.06172839506172839,0,0,0.06172839506172839,51.66666666666667,0)" xlink:href="#Q"/><use transform="matrix(0.06172839506172839,0,0,0.06172839506172839,56.543209876543216,0)" xlink:href="#am"/></g><path fill="#3a414a" d="M30-248c87 1 191-15 191 75 0 78-77 80-158 76V0H30v-248zm33 125c57 0 124 11 124-50 0-59-68-47-124-48v98" id="an"/><path fill="#3a414a" d="M135-143c-3-34-86-38-87 0 15 53 115 12 119 90S17 21 10-45l28-5c4 36 97 45 98 0-10-56-113-15-118-90-4-57 82-63 122-42 12 7 21 19 24 35zm-67-68c8-23 27-35 38-54h36v5l-58 49H68" id="ao"/><path fill="#3a414a" d="M96-169c-40 0-48 33-48 73s9 75 48 75c24 0 41-14 43-38l32 2c-6 37-31 61-74 61-59 0-76-41-82-99-10-93 101-131 147-64 4 7 5 14 7 22l-32 3c-4-21-16-35-41-35zm-20-42c8-23 27-35 38-54h36v5l-58 49H76" id="ap"/><g id="l"><use transform="matrix(0.06172839506172839,0,0,0.06172839506172839,0,0)" xlink:href="#an"/><use transform="matrix(0.06172839506172839,0,0,0.06172839506172839,14.814814814814813,0)" xlink:href="#af"/><use transform="matrix(0.06172839506172839,0,0,0.06172839506172839,19.691358024691354,0)" xlink:href="#S"/><use transform="matrix(0.06172839506172839,0,0,0.06172839506172839,32.03703703703703,0)" xlink:href="#ak"/><use transform="matrix(0.06172839506172839,0,0,0.06172839506172839,38.20987654320987,0)" xlink:href="#T"/><use transform="matrix(0.06172839506172839,0,0,0.06172839506172839,50.55555555555555,0)" xlink:href="#ag"/><use transform="matrix(0.06172839506172839,0,0,0.06172839506172839,62.90123456790123,0)" xlink:href="#ao"/><use transform="matrix(0.06172839506172839,0,0,0.06172839506172839,74.01234567901234,0)" xlink:href="#ap"/></g><g id="m"><use transform="matrix(0.06172839506172839,0,0,0.06172839506172839,0,0)" xlink:href="#an"/><use transform="matrix(0.06172839506172839,0,0,0.06172839506172839,14.814814814814813,0)" xlink:href="#ag"/><use transform="matrix(0.06172839506172839,0,0,0.06172839506172839,27.160493827160494,0)" xlink:href="#ak"/><use transform="matrix(0.06172839506172839,0,0,0.06172839506172839,33.333333333333336,0)" xlink:href="#R"/><use transform="matrix(0.06172839506172839,0,0,0.06172839506172839,49.32098765432099,0)" xlink:href="#Q"/><use transform="matrix(0.06172839506172839,0,0,0.06172839506172839,54.19753086419753,0)" xlink:href="#U"/><use transform="matrix(0.06172839506172839,0,0,0.06172839506172839,66.54320987654322,0)" xlink:href="#ab"/><use transform="matrix(0.06172839506172839,0,0,0.06172839506172839,73.8888888888889,0)" xlink:href="#ac"/><use transform="matrix(0.06172839506172839,0,0,0.06172839506172839,86.23456790123458,0)" xlink:href="#N"/><use transform="matrix(0.06172839506172839,0,0,0.06172839506172839,97.3456790123457,0)" xlink:href="#U"/><use transform="matrix(0.06172839506172839,0,0,0.06172839506172839,109.69135802469138,0)" xlink:href="#T"/><use transform="matrix(0.06172839506172839,0,0,0.06172839506172839,122.03703703703707,0)" xlink:href="#Q"/><use transform="matrix(0.06172839506172839,0,0,0.06172839506172839,126.9135802469136,0)" xlink:href="#U"/></g><path fill="#3a414a" d="M26 75v-336h71v23H56V52h41v23H26" id="aq"/><path fill="#3a414a" d="M212-179c-10-28-35-45-73-45-59 0-87 40-87 99 0 60 29 101 89 101 43 0 62-24 78-52l27 14C228-24 195 4 139 4 59 4 22-46 18-125c-6-104 99-153 187-111 19 9 31 26 39 46" id="ar"/><g id="n"><use transform="matrix(0.06172839506172839,0,0,0.06172839506172839,0,0)" xlink:href="#aq"/><use transform="matrix(0.06172839506172839,0,0,0.06172839506172839,6.172839506172839,0)" xlink:href="#ar"/><use transform="matrix(0.06172839506172839,0,0,0.06172839506172839,22.160493827160494,0)" xlink:href="#N"/><use transform="matrix(0.06172839506172839,0,0,0.06172839506172839,33.27160493827161,0)" xlink:href="#L"/></g><g id="o"><use transform="matrix(0.06172839506172839,0,0,0.06172839506172839,0,0)" xlink:href="#R"/><use transform="matrix(0.06172839506172839,0,0,0.06172839506172839,15.987654320987653,0)" xlink:href="#L"/><use transform="matrix(0.06172839506172839,0,0,0.06172839506172839,27.098765432098766,0)" xlink:href="#ah"/><use transform="matrix(0.06172839506172839,0,0,0.06172839506172839,39.44444444444444,0)" xlink:href="#ab"/><use transform="matrix(0.06172839506172839,0,0,0.06172839506172839,46.79012345679012,0)" xlink:href="#S"/><use transform="matrix(0.06172839506172839,0,0,0.06172839506172839,59.1358024691358,0)" xlink:href="#af"/></g><path fill="#3a414a" d="M3 75V52h41v-290H3v-23h71V75H3" id="as"/><g id="p"><use transform="matrix(0.06172839506172839,0,0,0.06172839506172839,0,0)" xlink:href="#V"/><use transform="matrix(0.06172839506172839,0,0,0.06172839506172839,6.172839506172839,0)" xlink:href="#Q"/><use transform="matrix(0.06172839506172839,0,0,0.06172839506172839,11.049382716049383,0)" xlink:href="#W"/><use transform="matrix(0.06172839506172839,0,0,0.06172839506172839,15.925925925925926,0)" xlink:href="#X"/><use transform="matrix(0.06172839506172839,0,0,0.06172839506172839,34.382716049382715,0)" xlink:href="#as"/></g><path fill="#3a414a" d="M127-220V0H93v-220H8v-28h204v28h-85" id="at"/><g id="q"><use transform="matrix(0.06172839506172839,0,0,0.06172839506172839,0,0)" xlink:href="#aq"/><use transform="matrix(0.06172839506172839,0,0,0.06172839506172839,6.172839506172839,0)" xlink:href="#at"/><use transform="matrix(0.06172839506172839,0,0,0.06172839506172839,17.22222222222222,0)" xlink:href="#S"/><use transform="matrix(0.06172839506172839,0,0,0.06172839506172839,29.5679012345679,0)" xlink:href="#P"/><use transform="matrix(0.06172839506172839,0,0,0.06172839506172839,40.67901234567901,0)" xlink:href="#as"/></g><path fill="#3a414a" d="M190 0L58-211 59 0H30v-248h39L202-35l-2-213h31V0h-41" id="au"/><g id="r"><use transform="matrix(0.06172839506172839,0,0,0.06172839506172839,0,0)" xlink:href="#aq"/><use transform="matrix(0.06172839506172839,0,0,0.06172839506172839,6.172839506172839,0)" xlink:href="#au"/><use transform="matrix(0.06172839506172839,0,0,0.06172839506172839,22.160493827160494,0)" xlink:href="#Q"/><use transform="matrix(0.06172839506172839,0,0,0.06172839506172839,27.037037037037038,0)" xlink:href="#U"/><use transform="matrix(0.06172839506172839,0,0,0.06172839506172839,39.382716049382715,0)" xlink:href="#as"/></g><g id="s"><use transform="matrix(0.06172839506172839,0,0,0.06172839506172839,0,0)" xlink:href="#al"/><use transform="matrix(0.06172839506172839,0,0,0.06172839506172839,4.876543209876543,0)" xlink:href="#U"/><use transform="matrix(0.06172839506172839,0,0,0.06172839506172839,17.22222222222222,0)" xlink:href="#M"/><use transform="matrix(0.06172839506172839,0,0,0.06172839506172839,28.333333333333332,0)" xlink:href="#ak"/></g><g id="t"><use transform="matrix(0.06172839506172839,0,0,0.06172839506172839,0,0)" xlink:href="#N"/><use transform="matrix(0.06172839506172839,0,0,0.06172839506172839,11.11111111111111,0)" xlink:href="#ac"/><use transform="matrix(0.06172839506172839,0,0,0.06172839506172839,23.45679012345679,0)" xlink:href="#U"/><use transform="matrix(0.06172839506172839,0,0,0.06172839506172839,35.80246913580247,0)" xlink:href="#ad"/><use transform="matrix(0.06172839506172839,0,0,0.06172839506172839,46.91358024691358,0)" xlink:href="#L"/><use transform="matrix(0.06172839506172839,0,0,0.06172839506172839,58.0246913580247,0)" xlink:href="#ac"/><use transform="matrix(0.06172839506172839,0,0,0.06172839506172839,70.37037037037038,0)" xlink:href="#ag"/><use transform="matrix(0.06172839506172839,0,0,0.06172839506172839,82.71604938271606,0)" xlink:href="#R"/><use transform="matrix(0.06172839506172839,0,0,0.06172839506172839,98.70370370370372,0)" xlink:href="#S"/><use transform="matrix(0.06172839506172839,0,0,0.06172839506172839,111.04938271604941,0)" xlink:href="#T"/><use transform="matrix(0.06172839506172839,0,0,0.06172839506172839,123.39506172839509,0)" xlink:href="#L"/></g><g id="u"><use transform="matrix(0.06172839506172839,0,0,0.06172839506172839,0,0)" xlink:href="#T"/><use transform="matrix(0.06172839506172839,0,0,0.06172839506172839,12.345679012345679,0)" xlink:href="#S"/></g><g id="v"><use transform="matrix(0.06172839506172839,0,0,0.06172839506172839,0,0)" xlink:href="#ak"/><use transform="matrix(0.06172839506172839,0,0,0.06172839506172839,6.172839506172839,0)" xlink:href="#U"/><use transform="matrix(0.06172839506172839,0,0,0.06172839506172839,18.51851851851852,0)" xlink:href="#T"/></g><g id="w"><use transform="matrix(0.06172839506172839,0,0,0.06172839506172839,0,0)" xlink:href="#T"/><use transform="matrix(0.06172839506172839,0,0,0.06172839506172839,12.345679012345679,0)" xlink:href="#S"/></g><g id="x"><use transform="matrix(0.06172839506172839,0,0,0.06172839506172839,0,0)" xlink:href="#R"/><use transform="matrix(0.06172839506172839,0,0,0.06172839506172839,15.987654320987653,0)" xlink:href="#L"/><use transform="matrix(0.06172839506172839,0,0,0.06172839506172839,27.098765432098766,0)" xlink:href="#ah"/><use transform="matrix(0.06172839506172839,0,0,0.06172839506172839,39.44444444444444,0)" xlink:href="#ab"/><use transform="matrix(0.06172839506172839,0,0,0.06172839506172839,46.79012345679012,0)" xlink:href="#S"/><use transform="matrix(0.06172839506172839,0,0,0.06172839506172839,59.1358024691358,0)" xlink:href="#T"/><use transform="matrix(0.06172839506172839,0,0,0.06172839506172839,71.48148148148148,0)" xlink:href="#L"/></g><g id="y"><use transform="matrix(0.06172839506172839,0,0,0.06172839506172839,0,0)" xlink:href="#ad"/><use transform="matrix(0.06172839506172839,0,0,0.06172839506172839,11.11111111111111,0)" xlink:href="#N"/><use transform="matrix(0.06172839506172839,0,0,0.06172839506172839,22.22222222222222,0)" xlink:href="#S"/><use transform="matrix(0.06172839506172839,0,0,0.06172839506172839,34.5679012345679,0)" xlink:href="#M"/></g><use transform="matrix(0.06172839506172839,0,0,0.06172839506172839,0,0)" xlink:href="#Q" id="z"/><g id="A"><use transform="matrix(0.06172839506172839,0,0,0.06172839506172839,0,0)" xlink:href="#ak"/><use transform="matrix(0.06172839506172839,0,0,0.06172839506172839,6.172839506172839,0)" xlink:href="#L"/><use transform="matrix(0.06172839506172839,0,0,0.06172839506172839,17.28395061728395,0)" xlink:href="#aa"/></g><g id="B"><use transform="matrix(0.06172839506172839,0,0,0.06172839506172839,0,0)" xlink:href="#ak"/><use transform="matrix(0.06172839506172839,0,0,0.06172839506172839,6.172839506172839,0)" xlink:href="#ab"/><use transform="matrix(0.06172839506172839,0,0,0.06172839506172839,13.518518518518519,0)" xlink:href="#S"/><use transform="matrix(0.06172839506172839,0,0,0.06172839506172839,25.864197530864196,0)" xlink:href="#T"/><use transform="matrix(0.06172839506172839,0,0,0.06172839506172839,38.20987654320987,0)" xlink:href="#M"/><use transform="matrix(0.06172839506172839,0,0,0.06172839506172839,49.32098765432099,0)" xlink:href="#X"/><use transform="matrix(0.06172839506172839,0,0,0.06172839506172839,67.77777777777777,0)" xlink:href="#Q"/><use transform="matrix(0.06172839506172839,0,0,0.06172839506172839,72.65432098765432,0)" xlink:href="#M"/><use transform="matrix(0.06172839506172839,0,0,0.06172839506172839,83.76543209876543,0)" xlink:href="#al"/><use transform="matrix(0.06172839506172839,0,0,0.06172839506172839,88.64197530864197,0)" xlink:href="#Q"/><use transform="matrix(0.06172839506172839,0,0,0.06172839506172839,93.51851851851852,0)" xlink:href="#as"/></g><path fill="#3a414a" d="M233-177c-1 41-23 64-60 70L243 0h-38l-65-103H63V0H30v-248c88 3 205-21 203 71zM63-129c60-2 137 13 137-47 0-61-80-42-137-45v92" id="av"/><g id="C"><use transform="matrix(0.06172839506172839,0,0,0.06172839506172839,0,0)" xlink:href="#av"/><use transform="matrix(0.06172839506172839,0,0,0.06172839506172839,15.987654320987653,0)" xlink:href="#U"/><use transform="matrix(0.06172839506172839,0,0,0.06172839506172839,28.333333333333332,0)" xlink:href="#N"/><use transform="matrix(0.06172839506172839,0,0,0.06172839506172839,39.44444444444444,0)" xlink:href="#U"/><use transform="matrix(0.06172839506172839,0,0,0.06172839506172839,51.79012345679012,0)" xlink:href="#ab"/><use transform="matrix(0.06172839506172839,0,0,0.06172839506172839,59.1358024691358,0)" xlink:href="#R"/><use transform="matrix(0.06172839506172839,0,0,0.06172839506172839,75.12345679012346,0)" xlink:href="#S"/><use transform="matrix(0.06172839506172839,0,0,0.06172839506172839,87.46913580246914,0)" xlink:href="#ad"/><use transform="matrix(0.06172839506172839,0,0,0.06172839506172839,98.58024691358025,0)" xlink:href="#al"/><use transform="matrix(0.06172839506172839,0,0,0.06172839506172839,103.4567901234568,0)" xlink:href="#S"/></g><g id="D"><use transform="matrix(0.06172839506172839,0,0,0.06172839506172839,0,0)" xlink:href="#X"/><use transform="matrix(0.06172839506172839,0,0,0.06172839506172839,18.456790123456788,0)" xlink:href="#Q"/><use transform="matrix(0.06172839506172839,0,0,0.06172839506172839,23.33333333333333,0)" xlink:href="#U"/><use transform="matrix(0.06172839506172839,0,0,0.06172839506172839,35.679012345679006,0)" xlink:href="#al"/><use transform="matrix(0.06172839506172839,0,0,0.06172839506172839,40.55555555555555,0)" xlink:href="#M"/><use transform="matrix(0.06172839506172839,0,0,0.06172839506172839,51.66666666666666,0)" xlink:href="#ad"/></g><g id="E"><use transform="matrix(0.06172839506172839,0,0,0.06172839506172839,0,0)" xlink:href="#ag"/><use transform="matrix(0.06172839506172839,0,0,0.06172839506172839,12.345679012345679,0)" xlink:href="#M"/><use transform="matrix(0.06172839506172839,0,0,0.06172839506172839,23.45679012345679,0)" xlink:href="#ak"/><use transform="matrix(0.06172839506172839,0,0,0.06172839506172839,29.62962962962963,0)" xlink:href="#S"/><use transform="matrix(0.06172839506172839,0,0,0.06172839506172839,41.97530864197531,0)" xlink:href="#ak"/><use transform="matrix(0.06172839506172839,0,0,0.06172839506172839,48.14814814814815,0)" xlink:href="#U"/><use transform="matrix(0.06172839506172839,0,0,0.06172839506172839,60.49382716049383,0)" xlink:href="#ad"/><use transform="matrix(0.06172839506172839,0,0,0.06172839506172839,71.60493827160494,0)" xlink:href="#N"/><use transform="matrix(0.06172839506172839,0,0,0.06172839506172839,82.71604938271605,0)" xlink:href="#T"/><use transform="matrix(0.06172839506172839,0,0,0.06172839506172839,95.06172839506173,0)" xlink:href="#Q"/><use transform="matrix(0.06172839506172839,0,0,0.06172839506172839,99.93827160493828,0)" xlink:href="#U"/></g><g id="F"><use transform="matrix(0.06172839506172839,0,0,0.06172839506172839,0,0)" xlink:href="#N"/><use transform="matrix(0.06172839506172839,0,0,0.06172839506172839,11.11111111111111,0)" xlink:href="#ac"/><use transform="matrix(0.06172839506172839,0,0,0.06172839506172839,23.45679012345679,0)" xlink:href="#U"/><use transform="matrix(0.06172839506172839,0,0,0.06172839506172839,35.80246913580247,0)" xlink:href="#ad"/><use transform="matrix(0.06172839506172839,0,0,0.06172839506172839,46.91358024691358,0)" xlink:href="#L"/><use transform="matrix(0.06172839506172839,0,0,0.06172839506172839,58.0246913580247,0)" xlink:href="#ac"/><use transform="matrix(0.06172839506172839,0,0,0.06172839506172839,70.37037037037038,0)" xlink:href="#ag"/><use transform="matrix(0.06172839506172839,0,0,0.06172839506172839,82.71604938271606,0)" xlink:href="#R"/><use transform="matrix(0.06172839506172839,0,0,0.06172839506172839,98.70370370370372,0)" xlink:href="#S"/><use transform="matrix(0.06172839506172839,0,0,0.06172839506172839,111.04938271604941,0)" xlink:href="#T"/><use transform="matrix(0.06172839506172839,0,0,0.06172839506172839,123.39506172839509,0)" xlink:href="#L"/><use transform="matrix(0.06172839506172839,0,0,0.06172839506172839,134.5061728395062,0)" xlink:href="#as"/></g><g id="G"><use transform="matrix(0.06172839506172839,0,0,0.06172839506172839,0,0)" xlink:href="#aq"/><use transform="matrix(0.06172839506172839,0,0,0.06172839506172839,6.172839506172839,0)" xlink:href="#an"/><use transform="matrix(0.06172839506172839,0,0,0.06172839506172839,20.98765432098765,0)" xlink:href="#ag"/><use transform="matrix(0.06172839506172839,0,0,0.06172839506172839,33.33333333333333,0)" xlink:href="#X"/><use transform="matrix(0.06172839506172839,0,0,0.06172839506172839,51.79012345679011,0)" xlink:href="#L"/><use transform="matrix(0.06172839506172839,0,0,0.06172839506172839,62.90123456790123,0)" xlink:href="#ao"/><use transform="matrix(0.06172839506172839,0,0,0.06172839506172839,74.01234567901234,0)" xlink:href="#W"/><use transform="matrix(0.06172839506172839,0,0,0.06172839506172839,78.88888888888889,0)" xlink:href="#T"/><use transform="matrix(0.06172839506172839,0,0,0.06172839506172839,91.23456790123457,0)" xlink:href="#S"/></g><g id="H"><use transform="matrix(0.06172839506172839,0,0,0.06172839506172839,0,0)" xlink:href="#aa"/><use transform="matrix(0.06172839506172839,0,0,0.06172839506172839,12.345679012345679,0)" xlink:href="#af"/><use transform="matrix(0.06172839506172839,0,0,0.06172839506172839,17.22222222222222,0)" xlink:href="#S"/><use transform="matrix(0.06172839506172839,0,0,0.06172839506172839,29.5679012345679,0)" xlink:href="#ak"/><use transform="matrix(0.06172839506172839,0,0,0.06172839506172839,35.74074074074074,0)" xlink:href="#T"/><use transform="matrix(0.06172839506172839,0,0,0.06172839506172839,48.08641975308642,0)" xlink:href="#ag"/><use transform="matrix(0.06172839506172839,0,0,0.06172839506172839,60.432098765432094,0)" xlink:href="#ao"/><use transform="matrix(0.06172839506172839,0,0,0.06172839506172839,71.5432098765432,0)" xlink:href="#ap"/><use transform="matrix(0.06172839506172839,0,0,0.06172839506172839,82.65432098765432,0)" xlink:href="#as"/></g><path fill="#3a414a" d="M140-251c81 0 123 46 123 126C263-46 219 4 140 4 59 4 17-45 17-125s42-126 123-126zm0 227c63 0 89-41 89-101s-29-99-89-99c-61 0-89 39-89 99S79-25 140-24" id="aw"/><g id="I"><use transform="matrix(0.06172839506172839,0,0,0.06172839506172839,0,0)" xlink:href="#aw"/><use transform="matrix(0.06172839506172839,0,0,0.06172839506172839,17.28395061728395,0)" xlink:href="#ah"/><use transform="matrix(0.06172839506172839,0,0,0.06172839506172839,29.629629629629626,0)" xlink:href="#M"/><use transform="matrix(0.06172839506172839,0,0,0.06172839506172839,40.74074074074073,0)" xlink:href="#af"/><use transform="matrix(0.06172839506172839,0,0,0.06172839506172839,45.61728395061728,0)" xlink:href="#O"/><use transform="matrix(0.06172839506172839,0,0,0.06172839506172839,57.962962962962955,0)" xlink:href="#ae"/><use transform="matrix(0.06172839506172839,0,0,0.06172839506172839,70.30864197530863,0)" xlink:href="#S"/></g><g id="J"><use transform="matrix(0.06172839506172839,0,0,0.06172839506172839,0,0)" xlink:href="#T"/><use transform="matrix(0.06172839506172839,0,0,0.06172839506172839,12.345679012345679,0)" xlink:href="#Q"/><use transform="matrix(0.06172839506172839,0,0,0.06172839506172839,17.22222222222222,0)" xlink:href="#U"/><use transform="matrix(0.06172839506172839,0,0,0.06172839506172839,29.5679012345679,0)" xlink:href="#aa"/><use transform="matrix(0.06172839506172839,0,0,0.06172839506172839,41.913580246913575,0)" xlink:href="#ag"/><use transform="matrix(0.06172839506172839,0,0,0.06172839506172839,54.25925925925925,0)" xlink:href="#R"/><use transform="matrix(0.06172839506172839,0,0,0.06172839506172839,70.24691358024691,0)" xlink:href="#ag"/><use transform="matrix(0.06172839506172839,0,0,0.06172839506172839,82.5925925925926,0)" xlink:href="#ac"/><use transform="matrix(0.06172839506172839,0,0,0.06172839506172839,94.93827160493828,0)" xlink:href="#N"/><use transform="matrix(0.06172839506172839,0,0,0.06172839506172839,106.0493827160494,0)" xlink:href="#U"/><use transform="matrix(0.06172839506172839,0,0,0.06172839506172839,118.39506172839508,0)" xlink:href="#T"/><use transform="matrix(0.06172839506172839,0,0,0.06172839506172839,130.74074074074076,0)" xlink:href="#Q"/><use transform="matrix(0.06172839506172839,0,0,0.06172839506172839,135.6172839506173,0)" xlink:href="#S"/></g></defs></g></svg>