<svg width="605" height="280" xmlns="http://www.w3.org/2000/svg" xmlns:xlink="http://www.w3.org/1999/xlink" xml:space="preserve" overflow="hidden"><g><g><path d="M1057.2 457.255C1057.79 458.541 1059.08 459.362 1060.49 459.366L1113.17 459.366C1114.45 459.366 1115.49 460.408 1115.49 461.69L1115.49 539.93C1115.49 541.212 1114.45 542.254 1113.17 542.254L962.887 542.254C961.605 542.254 960.563 541.212 960.563 539.93L960.563 451.62C960.563 450.338 961.605 449.296 962.887 449.296L1051.2 449.296C1052.61 449.3 1053.9 450.121 1054.49 451.407ZM960.563 459.366 1058.17 459.366" stroke="#282C33" stroke-width="0.774648" stroke-linecap="butt" stroke-linejoin="miter" stroke-miterlimit="4" stroke-opacity="1" fill="#FFFFFF" fill-rule="nonzero" fill-opacity="1" transform="matrix(1 0 0 1.00126 -952.43 -271.08)"/><path d="M3.06034-2.50565C3.72978-2.41001 4.22709-2.06573 4.22709-1.3389 4.22709 0.325161 2.19962-0.0382542 0.573813 0L0.573813-4.74352C2.02747-4.68614 3.95931-5.06868 3.95931-3.5959 3.95931-2.9647 3.5959-2.63954 3.06034-2.50565ZM1.20501-2.71605C2.16136-2.73518 3.30899-2.5439 3.30899-3.51939 3.30899-4.41836 2.10398-4.20796 1.20501-4.22709L1.20501-2.71605ZM1.20501-0.516432C2.257-0.554686 3.57677-0.248652 3.57677-1.37715 3.57677-2.44827 2.23787-2.18049 1.20501-2.21874L1.20501-0.516432" fill="#3A414A" fill-rule="nonzero" fill-opacity="1" transform="matrix(1 0 0 1.00126 11.2324 185.203)"/><path d="M2.69692-0.688576C2.41001-0.286907 2.10398 0.0956355 1.39628 0.0765084 0.707703 0.0573813 0.286907-0.325161 0.286907-1.01374 0.267779-2.23787 1.49191-2.21874 2.67779-2.21874 2.73518-2.88819 2.50565-3.25161 1.89358-3.25161 1.43453-3.23248 1.10937-3.11772 1.09024-2.65867L0.45905-2.71605C0.554686-3.42375 1.09024-3.71066 1.91271-3.71066 2.77343-3.71066 3.28986-3.32812 3.28986-2.48652L3.28986-0.918101C3.27073-0.535559 3.42375-0.306034 3.82542-0.401669L3.82542-0.0191271C3.23248 0.153017 2.65867-0.0573813 2.69692-0.688576ZM0.918101-1.01374C0.918101-0.631194 1.14763-0.382542 1.53017-0.382542 2.31438-0.439923 2.73518-0.937228 2.67779-1.79795 1.85533-1.75969 0.918101-1.89358 0.918101-1.01374" fill="#3A414A" fill-rule="nonzero" fill-opacity="1" transform="matrix(1 0 0 1.00126 15.8229 185.203)"/><path d="M0.172144 0 0.172144-0.45905 2.39089-3.1751 0.306034-3.1751 0.306034-3.63415 3.06034-3.63415 3.06034-3.1751 0.841592-0.45905 3.19423-0.45905 3.19423 0 0.172144 0" fill="#3A414A" fill-rule="nonzero" fill-opacity="1" transform="matrix(1 0 0 1.00126 19.6483 185.203)"/><path d="M2.69692-0.688576C2.41001-0.286907 2.10398 0.0956355 1.39628 0.0765084 0.707703 0.0573813 0.286907-0.325161 0.286907-1.01374 0.267779-2.23787 1.49191-2.21874 2.67779-2.21874 2.73518-2.88819 2.50565-3.25161 1.89358-3.25161 1.43453-3.23248 1.10937-3.11772 1.09024-2.65867L0.45905-2.71605C0.554686-3.42375 1.09024-3.71066 1.91271-3.71066 2.77343-3.71066 3.28986-3.32812 3.28986-2.48652L3.28986-0.918101C3.27073-0.535559 3.42375-0.306034 3.82542-0.401669L3.82542-0.0191271C3.23248 0.153017 2.65867-0.0573813 2.69692-0.688576ZM0.918101-1.01374C0.918101-0.631194 1.14763-0.382542 1.53017-0.382542 2.31438-0.439923 2.73518-0.937228 2.67779-1.79795 1.85533-1.75969 0.918101-1.89358 0.918101-1.01374" fill="#3A414A" fill-rule="nonzero" fill-opacity="1" transform="matrix(1 0 0 1.00126 23.0912 185.203)"/><path d="M0.573813-4.74352C2.83081-4.87741 4.70527-4.5905 4.64789-2.41001 4.5905-0.918101 3.82542 0 2.33351 0L0.573813 0 0.573813-4.74352ZM1.20501-0.516432C2.90732-0.363415 3.99756-0.822465 3.99756-2.41001 3.99756-3.99756 2.84994-4.34185 1.20501-4.22709L1.20501-0.516432" fill="#3A414A" fill-rule="nonzero" fill-opacity="1" transform="matrix(1 0 0 1.00126 26.9166 185.203)"/><path d="M2.69692-0.688576C2.41001-0.286907 2.10398 0.0956355 1.39628 0.0765084 0.707703 0.0573813 0.286907-0.325161 0.286907-1.01374 0.267779-2.23787 1.49191-2.21874 2.67779-2.21874 2.73518-2.88819 2.50565-3.25161 1.89358-3.25161 1.43453-3.23248 1.10937-3.11772 1.09024-2.65867L0.45905-2.71605C0.554686-3.42375 1.09024-3.71066 1.91271-3.71066 2.77343-3.71066 3.28986-3.32812 3.28986-2.48652L3.28986-0.918101C3.27073-0.535559 3.42375-0.306034 3.82542-0.401669L3.82542-0.0191271C3.23248 0.153017 2.65867-0.0573813 2.69692-0.688576ZM0.918101-1.01374C0.918101-0.631194 1.14763-0.382542 1.53017-0.382542 2.31438-0.439923 2.73518-0.937228 2.67779-1.79795 1.85533-1.75969 0.918101-1.89358 0.918101-1.01374" fill="#3A414A" fill-rule="nonzero" fill-opacity="1" transform="matrix(1 0 0 1.00126 31.8706 185.203)"/><path d="M2.23787-3.71066C3.94018-3.78717 3.25161-1.49191 3.3855 0L2.77343 0 2.77343-2.31438C2.77343-2.90732 2.62041-3.25161 2.02747-3.23248 0.650321-3.19423 1.18588-1.28152 1.09024 0L0.478178 0 0.45905-3.63415 1.03286-3.63415C1.05199-3.44288 1.01374-3.1751 1.07112-3.02208 1.28152-3.44288 1.6258-3.69153 2.23787-3.71066" fill="#3A414A" fill-rule="nonzero" fill-opacity="1" transform="matrix(1 0 0 1.00126 35.696 185.203)"/><path d="M3.42375-3.63415 1.77882 0.59294C1.51104 1.1285 1.07112 1.56842 0.229525 1.39628L0.229525 0.937228C0.975482 1.05199 1.24326 0.554686 1.45366-0.0191271L0.0191271-3.63415 0.669449-3.63415 1.75969-0.650321 2.79256-3.63415 3.42375-3.63415" fill="#3A414A" fill-rule="nonzero" fill-opacity="1" transform="matrix(1 0 0 1.00126 39.5214 185.203)"/><path d="M1.8362-3.23248C1.07112-3.23248 0.918101-2.60129 0.918101-1.8362 0.918101-1.07112 1.09024-0.401669 1.8362-0.401669 2.29525-0.401669 2.62041-0.669449 2.65867-1.1285L3.27073-1.09024C3.15597-0.382542 2.67779 0.0765084 1.85533 0.0765084 0.72683 0.0765084 0.401669-0.707703 0.286907-1.81707 0.0956355-3.5959 2.21874-4.32273 3.09859-3.04121 3.1751-2.90732 3.19423-2.77343 3.23248-2.62041L2.62041-2.56303C2.5439-2.9647 2.31438-3.23248 1.8362-3.23248" fill="#3A414A" fill-rule="nonzero" fill-opacity="1" transform="matrix(1 0 0 1.00126 42.9643 185.203)"/><path d="M2.02747-3.23248C0.650321-3.23248 1.18588-1.28152 1.09024 0L0.478178 0 0.478178-4.99217 1.09024-4.99217 1.07112-3.02208C1.30064-3.42375 1.60668-3.71066 2.23787-3.71066 3.94018-3.71066 3.25161-1.49191 3.3855 0L2.77343 0 2.77343-2.31438C2.81168-2.92645 2.62041-3.25161 2.02747-3.23248" fill="#3A414A" fill-rule="nonzero" fill-opacity="1" transform="matrix(1 0 0 1.00126 46.4071 185.203)"/><path d="M1274.1 286.833C1274.69 288.117 1275.98 288.941 1277.39 288.944L1330.07 288.944C1331.35 288.944 1332.39 289.984 1332.39 291.268L1332.39 369.507C1332.39 370.791 1331.35 371.831 1330.07 371.831L1179.79 371.831C1178.51 371.831 1177.46 370.791 1177.46 369.507L1177.46 281.197C1177.46 279.914 1178.51 278.873 1179.79 278.873L1268.1 278.873C1269.51 278.876 1270.8 279.699 1271.39 280.984ZM1177.46 288.944 1275.07 288.944" stroke="#282C33" stroke-width="0.774648" stroke-linecap="butt" stroke-linejoin="miter" stroke-miterlimit="4" stroke-opacity="1" fill="#FFFFFF" fill-rule="nonzero" fill-opacity="1" transform="matrix(1 0 0 1.00126 -952.43 -271.08)"/><path d="M2.67779-4.8009C4.22709-4.8009 5.03043-3.92106 5.03043-2.39089 5.03043-0.879847 4.18884 0.0765084 2.67779 0.0765084 1.1285 0.0765084 0.325161-0.86072 0.325161-2.39089 0.325161-3.92106 1.1285-4.8009 2.67779-4.8009ZM2.67779-0.45905C3.8828-0.45905 4.38011-1.24326 4.38011-2.39089 4.38011-3.53851 3.82542-4.28447 2.67779-4.28447 1.51104-4.28447 0.975482-3.53851 0.975482-2.39089 0.975482-1.24326 1.51104-0.478178 2.67779-0.45905" fill="#3A414A" fill-rule="nonzero" fill-opacity="1" transform="matrix(1 0 0 1.00126 228.134 14.5647)"/><path d="M2.19962-3.71066C3.21335-3.71066 3.51939-2.9647 3.53851-1.8362 3.53851-0.573813 3.09859 0.0765084 2.19962 0.0765084 1.60668 0.0573813 1.26239-0.13389 1.07112-0.573813L1.03286 0 0.439923 0 0.45905-4.99217 1.07112-4.99217 1.07112-3.06034C1.26239-3.50026 1.60668-3.71066 2.19962-3.71066ZM2.0466-0.382542C2.81168-0.382542 2.90732-1.03286 2.90732-1.81707 2.90732-2.58216 2.81168-3.25161 2.0466-3.23248 1.24326-3.23248 1.07112-2.62041 1.07112-1.77882 1.07112-0.956355 1.26239-0.382542 2.0466-0.382542" fill="#3A414A" fill-rule="nonzero" fill-opacity="1" transform="matrix(1 0 0 1.00126 233.489 14.5647)"/><path d="M2.58216-2.73518C2.52478-3.3855 0.937228-3.46201 0.918101-2.73518 1.20501-1.72144 3.11772-2.50565 3.19423-1.01374 3.27073 0.478178 0.325161 0.401669 0.191271-0.86072L0.72683-0.956355C0.803338-0.267779 2.58216-0.0956355 2.60129-0.956355 2.41001-2.02747 0.439923-1.24326 0.344288-2.67779 0.267779-3.76804 1.91271-3.8828 2.67779-3.48113 2.90732-3.34724 3.07946-3.11772 3.13684-2.81168" fill="#3A414A" fill-rule="nonzero" fill-opacity="1" transform="matrix(1 0 0 1.00126 237.315 14.5647)"/><path d="M0.45905 0 0.45905-4.99217 1.07112-4.99217 1.07112 0 0.45905 0" fill="#3A414A" fill-rule="nonzero" fill-opacity="1" transform="matrix(1 0 0 1.00126 240.758 14.5647)"/><path d="M1.60668 0.0765084C-0.0956355 0.153017 0.573813-2.14224 0.439923-3.63415L1.05199-3.63415 1.05199-1.3389C1.05199-0.745957 1.18588-0.382542 1.79795-0.401669 3.1751-0.439923 2.65867-2.33351 2.7543-3.63415L3.34724-3.63415 3.36637 0 2.79256 0C2.77343-0.191271 2.81168-0.478178 2.7543-0.631194 2.5439-0.210398 2.21874 0.0573813 1.60668 0.0765084" fill="#3A414A" fill-rule="nonzero" fill-opacity="1" transform="matrix(1 0 0 1.00126 242.269 14.5647)"/><path d="M3.3855-3.63415C3.19423-1.24326 4.16971 1.97009 1.28152 1.35802 0.841592 1.24326 0.554686 0.975482 0.439923 0.535559L1.05199 0.439923C1.3389 1.3389 2.9647 1.05199 2.7543-0.0956355L2.7543-0.669449C2.5439-0.267779 2.19962 0.0191271 1.58755 0.0191271 0.554686 0.0191271 0.286907-0.765084 0.286907-1.81707 0.286907-2.88819 0.59294-3.6724 1.64493-3.69153 2.19962-3.71066 2.56303-3.3855 2.77343-3.02208 2.79256-3.21335 2.77343-3.46201 2.81168-3.63415L3.3855-3.63415ZM1.79795-0.420796C2.48652-0.420796 2.7543-1.03286 2.7543-1.81707 2.7543-2.62041 2.48652-3.25161 1.79795-3.25161 1.05199-3.25161 0.918101-2.60129 0.918101-1.81707 0.918101-1.03286 1.03286-0.420796 1.79795-0.420796" fill="#3A414A" fill-rule="nonzero" fill-opacity="1" transform="matrix(1 0 0 1.00126 246.094 14.5647)"/><path d="M2.69692-0.688576C2.41001-0.286907 2.10398 0.0956355 1.39628 0.0765084 0.707703 0.0573813 0.286907-0.325161 0.286907-1.01374 0.267779-2.23787 1.49191-2.21874 2.67779-2.21874 2.73518-2.88819 2.50565-3.25161 1.89358-3.25161 1.43453-3.23248 1.10937-3.11772 1.09024-2.65867L0.45905-2.71605C0.554686-3.42375 1.09024-3.71066 1.91271-3.71066 2.77343-3.71066 3.28986-3.32812 3.28986-2.48652L3.28986-0.918101C3.27073-0.535559 3.42375-0.306034 3.82542-0.401669L3.82542-0.0191271C3.23248 0.153017 2.65867-0.0573813 2.69692-0.688576ZM0.918101-1.01374C0.918101-0.631194 1.14763-0.382542 1.53017-0.382542 2.31438-0.439923 2.73518-0.937228 2.67779-1.79795 1.85533-1.75969 0.918101-1.89358 0.918101-1.01374" fill="#3A414A" fill-rule="nonzero" fill-opacity="1" transform="matrix(1 0 0 1.00126 249.92 14.5647)"/><path d="M3.71066 0 1.81707-2.29525 1.20501-1.81707 1.20501 0 0.573813 0 0.573813-4.74352 1.20501-4.74352 1.20501-2.37176 3.48113-4.74352 4.24622-4.74352 2.23787-2.67779 4.514 0 3.71066 0" fill="#3A414A" fill-rule="nonzero" fill-opacity="1" transform="matrix(1 0 0 1.00126 253.745 14.5647)"/><path d="M0.45905 0 0.45905-4.99217 1.07112-4.99217 1.07112 0 0.45905 0" fill="#3A414A" fill-rule="nonzero" fill-opacity="1" transform="matrix(1 0 0 1.00126 258.336 14.5647)"/><path d="M0.45905-4.41836 0.45905-4.99217 1.07112-4.99217 1.07112-4.41836 0.45905-4.41836ZM0.45905 0 0.45905-3.63415 1.07112-3.63415 1.07112 0 0.45905 0" fill="#3A414A" fill-rule="nonzero" fill-opacity="1" transform="matrix(1 0 0 1.00126 259.847 14.5647)"/><path d="M1.91271-3.71066C3.11772-3.71066 3.55764-2.90732 3.51939-1.68318L0.937228-1.68318C0.937228-0.918101 1.20501-0.401669 1.95096-0.382542 2.44827-0.363415 2.77343-0.612067 2.88819-0.937228L3.42375-0.784211C3.21335-0.248652 2.71605 0.0765084 1.95096 0.0765084 0.841592 0.0765084 0.267779-0.631194 0.286907-1.8362 0.306034-3.00296 0.784211-3.71066 1.91271-3.71066ZM2.90732-2.16136C3.02208-3.30899 1.45366-3.63415 1.05199-2.69692 0.994609-2.56303 0.937228-2.37176 0.937228-2.16136L2.90732-2.16136" fill="#3A414A" fill-rule="nonzero" fill-opacity="1" transform="matrix(1 0 0 1.00126 261.358 14.5647)"/><path d="M2.23787-3.71066C3.94018-3.78717 3.25161-1.49191 3.3855 0L2.77343 0 2.77343-2.31438C2.77343-2.90732 2.62041-3.25161 2.02747-3.23248 0.650321-3.19423 1.18588-1.28152 1.09024 0L0.478178 0 0.45905-3.63415 1.03286-3.63415C1.05199-3.44288 1.01374-3.1751 1.07112-3.02208 1.28152-3.44288 1.6258-3.69153 2.23787-3.71066" fill="#3A414A" fill-rule="nonzero" fill-opacity="1" transform="matrix(1 0 0 1.00126 265.183 14.5647)"/><path d="M1.1285-0.898974C1.09024-0.439923 1.47279-0.344288 1.85533-0.478178L1.85533-0.0191271C1.22413 0.172144 0.516432 0.0765084 0.516432-0.765084L0.516432-3.19423 0.0956355-3.19423 0.0956355-3.63415 0.554686-3.63415 0.72683-4.45661 1.1285-4.45661 1.1285-3.63415 1.79795-3.63415 1.79795-3.19423 1.1285-3.19423 1.1285-0.898974" fill="#3A414A" fill-rule="nonzero" fill-opacity="1" transform="matrix(1 0 0 1.00126 269.008 14.5647)"/><path d="M2.69692-0.688576C2.41001-0.286907 2.10398 0.0956355 1.39628 0.0765084 0.707703 0.0573813 0.286907-0.325161 0.286907-1.01374 0.267779-2.23787 1.49191-2.21874 2.67779-2.21874 2.73518-2.88819 2.50565-3.25161 1.89358-3.25161 1.43453-3.23248 1.10937-3.11772 1.09024-2.65867L0.45905-2.71605C0.554686-3.42375 1.09024-3.71066 1.91271-3.71066 2.77343-3.71066 3.28986-3.32812 3.28986-2.48652L3.28986-0.918101C3.27073-0.535559 3.42375-0.306034 3.82542-0.401669L3.82542-0.0191271C3.23248 0.153017 2.65867-0.0573813 2.69692-0.688576ZM0.918101-1.01374C0.918101-0.631194 1.14763-0.382542 1.53017-0.382542 2.31438-0.439923 2.73518-0.937228 2.67779-1.79795 1.85533-1.75969 0.918101-1.89358 0.918101-1.01374" fill="#3A414A" fill-rule="nonzero" fill-opacity="1" transform="matrix(1 0 0 1.00126 270.921 14.5647)"/><path d="M1491 286.833C1491.6 288.117 1492.88 288.941 1494.3 288.944L1546.97 288.944C1548.25 288.944 1549.3 289.984 1549.3 291.268L1549.3 369.507C1549.3 370.791 1548.25 371.831 1546.97 371.831L1396.69 371.831C1395.41 371.831 1394.37 370.791 1394.37 369.507L1394.37 281.197C1394.37 279.914 1395.41 278.873 1396.69 278.873L1485 278.873C1486.41 278.876 1487.7 279.699 1488.29 280.984ZM1394.37 288.944 1491.97 288.944" stroke="#282C33" stroke-width="0.774648" stroke-linecap="butt" stroke-linejoin="miter" stroke-miterlimit="4" stroke-opacity="1" fill="#FFFFFF" fill-rule="nonzero" fill-opacity="1" transform="matrix(1 0 0 1.00126 -952.43 -271.08)"/><path d="M0.573813-4.74352C2.23787-4.72439 4.22709-5.03043 4.22709-3.30899 4.22709-1.81707 2.7543-1.77882 1.20501-1.85533L1.20501 0 0.573813 0 0.573813-4.74352ZM1.20501-2.35263C2.29525-2.35263 3.57677-2.14224 3.57677-3.30899 3.57677-4.43749 2.27613-4.20796 1.20501-4.22709L1.20501-2.35263" fill="#3A414A" fill-rule="nonzero" fill-opacity="1" transform="matrix(1 0 0 1.00126 445.035 14.5647)"/><path d="M1.91271-3.71066C3.09859-3.72978 3.53851-3.00296 3.53851-1.81707 3.55764-0.612067 3.02208 0.0765084 1.89358 0.0765084 0.765084 0.0765084 0.306034-0.669449 0.286907-1.81707 0.286907-3.07946 0.822465-3.71066 1.91271-3.71066ZM1.89358-0.382542C2.73518-0.363415 2.90732-0.975482 2.90732-1.81707 2.90732-2.63954 2.7543-3.25161 1.93184-3.25161 1.10937-3.25161 0.918101-2.63954 0.918101-1.81707 0.918101-0.994609 1.10937-0.401669 1.89358-0.382542" fill="#3A414A" fill-rule="nonzero" fill-opacity="1" transform="matrix(1 0 0 1.00126 449.626 14.5647)"/><path d="M3.94018 0 3.25161 0 2.48652-3.13684 1.70231 0 1.01374 0-0.0191271-3.63415 0.59294-3.63415 1.3389-0.497305 2.16136-3.63415 2.81168-3.63415 3.5959-0.497305 4.39923-3.63415 4.99217-3.63415" fill="#3A414A" fill-rule="nonzero" fill-opacity="1" transform="matrix(1 0 0 1.00126 453.451 14.5647)"/><path d="M0.45905-4.41836 0.45905-4.99217 1.07112-4.99217 1.07112-4.41836 0.45905-4.41836ZM0.45905 0 0.45905-3.63415 1.07112-3.63415 1.07112 0 0.45905 0" fill="#3A414A" fill-rule="nonzero" fill-opacity="1" transform="matrix(1 0 0 1.00126 458.405 14.5647)"/><path d="M2.69692-0.688576C2.41001-0.286907 2.10398 0.0956355 1.39628 0.0765084 0.707703 0.0573813 0.286907-0.325161 0.286907-1.01374 0.267779-2.23787 1.49191-2.21874 2.67779-2.21874 2.73518-2.88819 2.50565-3.25161 1.89358-3.25161 1.43453-3.23248 1.10937-3.11772 1.09024-2.65867L0.45905-2.71605C0.554686-3.42375 1.09024-3.71066 1.91271-3.71066 2.77343-3.71066 3.28986-3.32812 3.28986-2.48652L3.28986-0.918101C3.27073-0.535559 3.42375-0.306034 3.82542-0.401669L3.82542-0.0191271C3.23248 0.153017 2.65867-0.0573813 2.69692-0.688576ZM0.918101-1.01374C0.918101-0.631194 1.14763-0.382542 1.53017-0.382542 2.31438-0.439923 2.73518-0.937228 2.67779-1.79795 1.85533-1.75969 0.918101-1.89358 0.918101-1.01374" fill="#3A414A" fill-rule="nonzero" fill-opacity="1" transform="matrix(1 0 0 1.00126 459.916 14.5647)"/><path d="M1.6258-3.71066C2.21874-3.71066 2.5439-3.46201 2.77343-3.07946L2.7543-4.99217 3.36637-4.99217 3.3855 0 2.81168 0C2.77343-0.191271 2.81168-0.439923 2.7543-0.59294 2.56303-0.153017 2.21874 0.0765084 1.6258 0.0765084 0.612067 0.0765084 0.306034-0.669449 0.286907-1.79795 0.286907-3.06034 0.72683-3.71066 1.6258-3.71066ZM1.79795-3.25161C1.03286-3.25161 0.918101-2.60129 0.918101-1.81707 0.918101-1.05199 1.03286-0.401669 1.77882-0.401669 2.58216-0.401669 2.7543-1.01374 2.7543-1.85533 2.7543-2.65867 2.58216-3.27073 1.79795-3.25161" fill="#3A414A" fill-rule="nonzero" fill-opacity="1" transform="matrix(1 0 0 1.00126 463.742 14.5647)"/><path d="M1.91271-3.71066C3.09859-3.72978 3.53851-3.00296 3.53851-1.81707 3.55764-0.612067 3.02208 0.0765084 1.89358 0.0765084 0.765084 0.0765084 0.306034-0.669449 0.286907-1.81707 0.286907-3.07946 0.822465-3.71066 1.91271-3.71066ZM1.89358-0.382542C2.73518-0.363415 2.90732-0.975482 2.90732-1.81707 2.90732-2.63954 2.7543-3.25161 1.93184-3.25161 1.10937-3.25161 0.918101-2.63954 0.918101-1.81707 0.918101-0.994609 1.10937-0.401669 1.89358-0.382542" fill="#3A414A" fill-rule="nonzero" fill-opacity="1" transform="matrix(1 0 0 1.00126 467.567 14.5647)"/><path d="M4.01669-3.23248C2.73518-3.1751 3.28986-1.22413 3.1751 0L2.58216 0 2.58216-2.31438C2.58216-2.86907 2.48652-3.27073 1.91271-3.23248 0.650321-3.15597 1.18588-1.24326 1.07112 0L0.478178 0 0.45905-3.63415 1.03286-3.63415C1.05199-3.44288 1.01374-3.1751 1.07112-3.02208 1.26239-3.86367 2.9647-3.97844 3.11772-3.02208 3.32812-3.42375 3.63415-3.69153 4.22709-3.71066 5.85289-3.74891 5.12606-1.43453 5.27908 0L4.68614 0 4.68614-2.31438C4.68614-2.86907 4.5905-3.25161 4.01669-3.23248" fill="#3A414A" fill-rule="nonzero" fill-opacity="1" transform="matrix(1 0 0 1.00126 471.392 14.5647)"/><path d="M0.45905-4.41836 0.45905-4.99217 1.07112-4.99217 1.07112-4.41836 0.45905-4.41836ZM0.45905 0 0.45905-3.63415 1.07112-3.63415 1.07112 0 0.45905 0" fill="#3A414A" fill-rule="nonzero" fill-opacity="1" transform="matrix(1 0 0 1.00126 477.111 14.5647)"/><path d="M1.91271-3.71066C3.11772-3.71066 3.55764-2.90732 3.51939-1.68318L0.937228-1.68318C0.937228-0.918101 1.20501-0.401669 1.95096-0.382542 2.44827-0.363415 2.77343-0.612067 2.88819-0.937228L3.42375-0.784211C3.21335-0.248652 2.71605 0.0765084 1.95096 0.0765084 0.841592 0.0765084 0.267779-0.631194 0.286907-1.8362 0.306034-3.00296 0.784211-3.71066 1.91271-3.71066ZM2.90732-2.16136C3.02208-3.30899 1.45366-3.63415 1.05199-2.69692 0.994609-2.56303 0.937228-2.37176 0.937228-2.16136L2.90732-2.16136" fill="#3A414A" fill-rule="nonzero" fill-opacity="1" transform="matrix(1 0 0 1.00126 478.622 14.5647)"/><path d="M2.23787-3.71066C3.94018-3.78717 3.25161-1.49191 3.3855 0L2.77343 0 2.77343-2.31438C2.77343-2.90732 2.62041-3.25161 2.02747-3.23248 0.650321-3.19423 1.18588-1.28152 1.09024 0L0.478178 0 0.45905-3.63415 1.03286-3.63415C1.05199-3.44288 1.01374-3.1751 1.07112-3.02208 1.28152-3.44288 1.6258-3.69153 2.23787-3.71066" fill="#3A414A" fill-rule="nonzero" fill-opacity="1" transform="matrix(1 0 0 1.00126 482.448 14.5647)"/><path d="M0.45905-4.41836 0.45905-4.99217 1.07112-4.99217 1.07112-4.41836 0.45905-4.41836ZM0.45905 0 0.45905-3.63415 1.07112-3.63415 1.07112 0 0.45905 0" fill="#3A414A" fill-rule="nonzero" fill-opacity="1" transform="matrix(1 0 0 1.00126 486.273 14.5647)"/><path d="M2.69692-0.688576C2.41001-0.286907 2.10398 0.0956355 1.39628 0.0765084 0.707703 0.0573813 0.286907-0.325161 0.286907-1.01374 0.267779-2.23787 1.49191-2.21874 2.67779-2.21874 2.73518-2.88819 2.50565-3.25161 1.89358-3.25161 1.43453-3.23248 1.10937-3.11772 1.09024-2.65867L0.45905-2.71605C0.554686-3.42375 1.09024-3.71066 1.91271-3.71066 2.77343-3.71066 3.28986-3.32812 3.28986-2.48652L3.28986-0.918101C3.27073-0.535559 3.42375-0.306034 3.82542-0.401669L3.82542-0.0191271C3.23248 0.153017 2.65867-0.0573813 2.69692-0.688576ZM0.918101-1.01374C0.918101-0.631194 1.14763-0.382542 1.53017-0.382542 2.31438-0.439923 2.73518-0.937228 2.67779-1.79795 1.85533-1.75969 0.918101-1.89358 0.918101-1.01374" fill="#3A414A" fill-rule="nonzero" fill-opacity="1" transform="matrix(1 0 0 1.00126 487.784 14.5647)"/><path d="M0.573813-4.74352C2.23787-4.72439 4.22709-5.03043 4.22709-3.30899 4.22709-1.81707 2.7543-1.77882 1.20501-1.85533L1.20501 0 0.573813 0 0.573813-4.74352ZM1.20501-2.35263C2.29525-2.35263 3.57677-2.14224 3.57677-3.30899 3.57677-4.43749 2.27613-4.20796 1.20501-4.22709L1.20501-2.35263" fill="#3A414A" fill-rule="nonzero" fill-opacity="1" transform="matrix(1 0 0 1.00126 491.61 14.5647)"/><path d="M1.60668 0.0765084C-0.0956355 0.153017 0.573813-2.14224 0.439923-3.63415L1.05199-3.63415 1.05199-1.3389C1.05199-0.745957 1.18588-0.382542 1.79795-0.401669 3.1751-0.439923 2.65867-2.33351 2.7543-3.63415L3.34724-3.63415 3.36637 0 2.79256 0C2.77343-0.191271 2.81168-0.478178 2.7543-0.631194 2.5439-0.210398 2.21874 0.0573813 1.60668 0.0765084" fill="#3A414A" fill-rule="nonzero" fill-opacity="1" transform="matrix(1 0 0 1.00126 496.2 14.5647)"/><path d="M2.58216-2.73518C2.52478-3.3855 0.937228-3.46201 0.918101-2.73518 1.20501-1.72144 3.11772-2.50565 3.19423-1.01374 3.27073 0.478178 0.325161 0.401669 0.191271-0.86072L0.72683-0.956355C0.803338-0.267779 2.58216-0.0956355 2.60129-0.956355 2.41001-2.02747 0.439923-1.24326 0.344288-2.67779 0.267779-3.76804 1.91271-3.8828 2.67779-3.48113 2.90732-3.34724 3.07946-3.11772 3.13684-2.81168" fill="#3A414A" fill-rule="nonzero" fill-opacity="1" transform="matrix(1 0 0 1.00126 500.026 14.5647)"/><path d="M2.02747-3.23248C0.650321-3.23248 1.18588-1.28152 1.09024 0L0.478178 0 0.478178-4.99217 1.09024-4.99217 1.07112-3.02208C1.30064-3.42375 1.60668-3.71066 2.23787-3.71066 3.94018-3.71066 3.25161-1.49191 3.3855 0L2.77343 0 2.77343-2.31438C2.81168-2.92645 2.62041-3.25161 2.02747-3.23248" fill="#3A414A" fill-rule="nonzero" fill-opacity="1" transform="matrix(1 0 0 1.00126 503.468 14.5647)"/><path d="M1244.03 313.771C1244.29 315.097 1245.45 316.056 1246.8 316.056L1268.1 316.056C1269.38 316.056 1270.42 317.097 1270.42 318.38L1270.42 342.394C1270.42 343.678 1269.38 344.718 1268.1 344.718L1203.03 344.718C1201.75 344.718 1200.7 343.678 1200.7 342.394L1200.7 308.31C1200.7 307.026 1201.75 305.986 1203.03 305.986L1240.21 305.986C1241.56 305.986 1242.72 306.945 1242.97 308.271ZM1200.7 316.056 1244.47 316.056" stroke="#282C33" stroke-width="0.774648" stroke-linecap="butt" stroke-linejoin="miter" stroke-miterlimit="4" stroke-opacity="1" fill="#FFFFFF" fill-rule="nonzero" fill-opacity="1" transform="matrix(1 0 0 1.00126 -952.43 -271.08)"/><path d="M2.73518 0.0765084C1.16675 0.0765084 0.420796-0.841592 0.344288-2.39089 0.248652-4.43749 2.257-5.33646 4.03582-4.514 4.36098-4.36098 4.5905-4.03582 4.74352-3.69153L4.13145-3.51939C3.8828-3.99756 3.42375-4.28447 2.67779-4.28447 1.51104-4.28447 0.994609-3.53851 0.994609-2.39089 0.994609-1.22413 1.5493-0.478178 2.73518-0.45905 3.40462-0.45905 3.92106-0.669449 4.24622-0.975482L4.24622-1.8362 2.83081-1.8362 2.83081-2.37176 4.83916-2.37176 4.83916-0.72683C4.36098-0.248652 3.6724 0.0765084 2.73518 0.0765084" fill="#3A414A" fill-rule="nonzero" fill-opacity="1" transform="matrix(1 0 0 1.00126 251.373 41.7115)"/><path d="M4.43749-1.77882C4.41836-0.535559 3.6724 0.0765084 2.44827 0.0765084 1.28152 0.0765084 0.535559-0.535559 0.535559-1.72144L0.535559-4.74352 1.16675-4.74352C1.31977-3.04121 0.535559-0.45905 2.44827-0.45905 4.39923-0.45905 3.6724-3.00296 3.80629-4.74352L4.43749-4.74352 4.43749-1.77882" fill="#3A414A" fill-rule="nonzero" fill-opacity="1" transform="matrix(1 0 0 1.00126 256.729 41.7115)"/><path d="M0.631194 0 0.631194-4.74352 1.28152-4.74352 1.28152 0 0.631194 0" fill="#3A414A" fill-rule="nonzero" fill-opacity="1" transform="matrix(1 0 0 1.00126 261.683 41.7115)"/><path d="M1057.2 286.833C1057.79 288.117 1059.08 288.941 1060.49 288.944L1113.17 288.944C1114.45 288.944 1115.49 289.984 1115.49 291.268L1115.49 369.507C1115.49 370.791 1114.45 371.831 1113.17 371.831L962.887 371.831C961.605 371.831 960.563 370.791 960.563 369.507L960.563 281.197C960.563 279.914 961.605 278.873 962.887 278.873L1051.2 278.873C1052.61 278.876 1053.9 279.699 1054.49 280.984ZM960.563 288.944 1058.17 288.944" stroke="#282C33" stroke-width="0.774648" stroke-linecap="butt" stroke-linejoin="miter" stroke-miterlimit="4" stroke-opacity="1" fill="#FFFFFF" fill-rule="nonzero" fill-opacity="1" transform="matrix(1 0 0 1.00126 -952.43 -271.08)"/><path d="M3.71066 0 1.81707-2.29525 1.20501-1.81707 1.20501 0 0.573813 0 0.573813-4.74352 1.20501-4.74352 1.20501-2.37176 3.48113-4.74352 4.24622-4.74352 2.23787-2.67779 4.514 0 3.71066 0" fill="#3A414A" fill-rule="nonzero" fill-opacity="1" transform="matrix(1 0 0 1.00126 11.2324 14.5647)"/><path d="M2.69692-0.688576C2.41001-0.286907 2.10398 0.0956355 1.39628 0.0765084 0.707703 0.0573813 0.286907-0.325161 0.286907-1.01374 0.267779-2.23787 1.49191-2.21874 2.67779-2.21874 2.73518-2.88819 2.50565-3.25161 1.89358-3.25161 1.43453-3.23248 1.10937-3.11772 1.09024-2.65867L0.45905-2.71605C0.554686-3.42375 1.09024-3.71066 1.91271-3.71066 2.77343-3.71066 3.28986-3.32812 3.28986-2.48652L3.28986-0.918101C3.27073-0.535559 3.42375-0.306034 3.82542-0.401669L3.82542-0.0191271C3.23248 0.153017 2.65867-0.0573813 2.69692-0.688576ZM0.918101-1.01374C0.918101-0.631194 1.14763-0.382542 1.53017-0.382542 2.31438-0.439923 2.73518-0.937228 2.67779-1.79795 1.85533-1.75969 0.918101-1.89358 0.918101-1.01374" fill="#3A414A" fill-rule="nonzero" fill-opacity="1" transform="matrix(1 0 0 1.00126 15.8229 14.5647)"/><path d="M1.1285-0.898974C1.09024-0.439923 1.47279-0.344288 1.85533-0.478178L1.85533-0.0191271C1.22413 0.172144 0.516432 0.0765084 0.516432-0.765084L0.516432-3.19423 0.0956355-3.19423 0.0956355-3.63415 0.554686-3.63415 0.72683-4.45661 1.1285-4.45661 1.1285-3.63415 1.79795-3.63415 1.79795-3.19423 1.1285-3.19423 1.1285-0.898974" fill="#3A414A" fill-rule="nonzero" fill-opacity="1" transform="matrix(1 0 0 1.00126 19.6483 14.5647)"/><path d="M2.69692-0.688576C2.41001-0.286907 2.10398 0.0956355 1.39628 0.0765084 0.707703 0.0573813 0.286907-0.325161 0.286907-1.01374 0.267779-2.23787 1.49191-2.21874 2.67779-2.21874 2.73518-2.88819 2.50565-3.25161 1.89358-3.25161 1.43453-3.23248 1.10937-3.11772 1.09024-2.65867L0.45905-2.71605C0.554686-3.42375 1.09024-3.71066 1.91271-3.71066 2.77343-3.71066 3.28986-3.32812 3.28986-2.48652L3.28986-0.918101C3.27073-0.535559 3.42375-0.306034 3.82542-0.401669L3.82542-0.0191271C3.23248 0.153017 2.65867-0.0573813 2.69692-0.688576ZM0.918101-1.01374C0.918101-0.631194 1.14763-0.382542 1.53017-0.382542 2.31438-0.439923 2.73518-0.937228 2.67779-1.79795 1.85533-1.75969 0.918101-1.89358 0.918101-1.01374" fill="#3A414A" fill-rule="nonzero" fill-opacity="1" transform="matrix(1 0 0 1.00126 21.561 14.5647)"/><path d="M0.45905 0 0.45905-4.99217 1.07112-4.99217 1.07112 0 0.45905 0" fill="#3A414A" fill-rule="nonzero" fill-opacity="1" transform="matrix(1 0 0 1.00126 25.3864 14.5647)"/><path d="M1.91271-3.71066C3.09859-3.72978 3.53851-3.00296 3.53851-1.81707 3.55764-0.612067 3.02208 0.0765084 1.89358 0.0765084 0.765084 0.0765084 0.306034-0.669449 0.286907-1.81707 0.286907-3.07946 0.822465-3.71066 1.91271-3.71066ZM1.89358-0.382542C2.73518-0.363415 2.90732-0.975482 2.90732-1.81707 2.90732-2.63954 2.7543-3.25161 1.93184-3.25161 1.10937-3.25161 0.918101-2.63954 0.918101-1.81707 0.918101-0.994609 1.10937-0.401669 1.89358-0.382542" fill="#3A414A" fill-rule="nonzero" fill-opacity="1" transform="matrix(1 0 0 1.00126 26.8975 14.5647)"/><path d="M3.3855-3.63415C3.19423-1.24326 4.16971 1.97009 1.28152 1.35802 0.841592 1.24326 0.554686 0.975482 0.439923 0.535559L1.05199 0.439923C1.3389 1.3389 2.9647 1.05199 2.7543-0.0956355L2.7543-0.669449C2.5439-0.267779 2.19962 0.0191271 1.58755 0.0191271 0.554686 0.0191271 0.286907-0.765084 0.286907-1.81707 0.286907-2.88819 0.59294-3.6724 1.64493-3.69153 2.19962-3.71066 2.56303-3.3855 2.77343-3.02208 2.79256-3.21335 2.77343-3.46201 2.81168-3.63415L3.3855-3.63415ZM1.79795-0.420796C2.48652-0.420796 2.7543-1.03286 2.7543-1.81707 2.7543-2.62041 2.48652-3.25161 1.79795-3.25161 1.05199-3.25161 0.918101-2.60129 0.918101-1.81707 0.918101-1.03286 1.03286-0.420796 1.79795-0.420796" fill="#3A414A" fill-rule="nonzero" fill-opacity="1" transform="matrix(1 0 0 1.00126 30.7229 14.5647)"/><path d="M1.20501-4.20796 1.20501-2.44827 3.84455-2.44827 3.84455-1.91271 1.20501-1.91271 1.20501 0 0.573813 0 0.573813-4.74352 3.92106-4.74352 3.92106-4.20796 1.20501-4.20796" fill="#3A414A" fill-rule="nonzero" fill-opacity="1" transform="matrix(1 0 0 1.00126 34.5483 14.5647)"/><path d="M0.45905-4.41836 0.45905-4.99217 1.07112-4.99217 1.07112-4.41836 0.45905-4.41836ZM0.45905 0 0.45905-3.63415 1.07112-3.63415 1.07112 0 0.45905 0" fill="#3A414A" fill-rule="nonzero" fill-opacity="1" transform="matrix(1 0 0 1.00126 38.7372 14.5647)"/><path d="M0.45905 0 0.45905-4.99217 1.07112-4.99217 1.07112 0 0.45905 0" fill="#3A414A" fill-rule="nonzero" fill-opacity="1" transform="matrix(1 0 0 1.00126 40.2482 14.5647)"/><path d="M4.01669-3.23248C2.73518-3.1751 3.28986-1.22413 3.1751 0L2.58216 0 2.58216-2.31438C2.58216-2.86907 2.48652-3.27073 1.91271-3.23248 0.650321-3.15597 1.18588-1.24326 1.07112 0L0.478178 0 0.45905-3.63415 1.03286-3.63415C1.05199-3.44288 1.01374-3.1751 1.07112-3.02208 1.26239-3.86367 2.9647-3.97844 3.11772-3.02208 3.32812-3.42375 3.63415-3.69153 4.22709-3.71066 5.85289-3.74891 5.12606-1.43453 5.27908 0L4.68614 0 4.68614-2.31438C4.68614-2.86907 4.5905-3.25161 4.01669-3.23248" fill="#3A414A" fill-rule="nonzero" fill-opacity="1" transform="matrix(1 0 0 1.00126 41.7593 14.5647)"/><path d="M1.91271-3.71066C3.09859-3.72978 3.53851-3.00296 3.53851-1.81707 3.55764-0.612067 3.02208 0.0765084 1.89358 0.0765084 0.765084 0.0765084 0.306034-0.669449 0.286907-1.81707 0.286907-3.07946 0.822465-3.71066 1.91271-3.71066ZM1.89358-0.382542C2.73518-0.363415 2.90732-0.975482 2.90732-1.81707 2.90732-2.63954 2.7543-3.25161 1.93184-3.25161 1.10937-3.25161 0.918101-2.63954 0.918101-1.81707 0.918101-0.994609 1.10937-0.401669 1.89358-0.382542" fill="#3A414A" fill-rule="nonzero" fill-opacity="1" transform="matrix(1 0 0 1.00126 47.4782 14.5647)"/><path d="M3.94018 0 3.25161 0 2.48652-3.13684 1.70231 0 1.01374 0-0.0191271-3.63415 0.59294-3.63415 1.3389-0.497305 2.16136-3.63415 2.81168-3.63415 3.5959-0.497305 4.39923-3.63415 4.99217-3.63415" fill="#3A414A" fill-rule="nonzero" fill-opacity="1" transform="matrix(1 0 0 1.00126 51.3038 14.5647)"/><path d="M1491 457.255C1491.6 458.541 1492.88 459.362 1494.3 459.366L1546.97 459.366C1548.25 459.366 1549.3 460.408 1549.3 461.69L1549.3 539.93C1549.3 541.212 1548.25 542.254 1546.97 542.254L1396.69 542.254C1395.41 542.254 1394.37 541.212 1394.37 539.93L1394.37 451.62C1394.37 450.338 1395.41 449.296 1396.69 449.296L1485 449.296C1486.41 449.3 1487.7 450.121 1488.29 451.407ZM1394.37 459.366 1491.97 459.366" stroke="#282C33" stroke-width="0.774648" stroke-linecap="butt" stroke-linejoin="miter" stroke-miterlimit="4" stroke-opacity="1" fill="#FFFFFF" fill-rule="nonzero" fill-opacity="1" transform="matrix(1 0 0 1.00126 -952.43 -271.08)"/><path d="M2.67779-4.8009C4.22709-4.8009 5.03043-3.92106 5.03043-2.39089 5.03043-0.879847 4.18884 0.0765084 2.67779 0.0765084 1.1285 0.0765084 0.325161-0.86072 0.325161-2.39089 0.325161-3.92106 1.1285-4.8009 2.67779-4.8009ZM2.67779-0.45905C3.8828-0.45905 4.38011-1.24326 4.38011-2.39089 4.38011-3.53851 3.82542-4.28447 2.67779-4.28447 1.51104-4.28447 0.975482-3.53851 0.975482-2.39089 0.975482-1.24326 1.51104-0.478178 2.67779-0.45905" fill="#3A414A" fill-rule="nonzero" fill-opacity="1" transform="matrix(1 0 0 1.00126 445.035 185.203)"/><path d="M2.19962-3.71066C3.21335-3.71066 3.51939-2.9647 3.53851-1.8362 3.53851-0.573813 3.09859 0.0765084 2.19962 0.0765084 1.60668 0.0573813 1.26239-0.13389 1.07112-0.573813L1.03286 0 0.439923 0 0.45905-4.99217 1.07112-4.99217 1.07112-3.06034C1.26239-3.50026 1.60668-3.71066 2.19962-3.71066ZM2.0466-0.382542C2.81168-0.382542 2.90732-1.03286 2.90732-1.81707 2.90732-2.58216 2.81168-3.25161 2.0466-3.23248 1.24326-3.23248 1.07112-2.62041 1.07112-1.77882 1.07112-0.956355 1.26239-0.382542 2.0466-0.382542" fill="#3A414A" fill-rule="nonzero" fill-opacity="1" transform="matrix(1 0 0 1.00126 450.391 185.203)"/><path d="M2.58216-2.73518C2.52478-3.3855 0.937228-3.46201 0.918101-2.73518 1.20501-1.72144 3.11772-2.50565 3.19423-1.01374 3.27073 0.478178 0.325161 0.401669 0.191271-0.86072L0.72683-0.956355C0.803338-0.267779 2.58216-0.0956355 2.60129-0.956355 2.41001-2.02747 0.439923-1.24326 0.344288-2.67779 0.267779-3.76804 1.91271-3.8828 2.67779-3.48113 2.90732-3.34724 3.07946-3.11772 3.13684-2.81168" fill="#3A414A" fill-rule="nonzero" fill-opacity="1" transform="matrix(1 0 0 1.00126 454.216 185.203)"/><path d="M0.45905 0 0.45905-4.99217 1.07112-4.99217 1.07112 0 0.45905 0" fill="#3A414A" fill-rule="nonzero" fill-opacity="1" transform="matrix(1 0 0 1.00126 457.659 185.203)"/><path d="M1.60668 0.0765084C-0.0956355 0.153017 0.573813-2.14224 0.439923-3.63415L1.05199-3.63415 1.05199-1.3389C1.05199-0.745957 1.18588-0.382542 1.79795-0.401669 3.1751-0.439923 2.65867-2.33351 2.7543-3.63415L3.34724-3.63415 3.36637 0 2.79256 0C2.77343-0.191271 2.81168-0.478178 2.7543-0.631194 2.5439-0.210398 2.21874 0.0573813 1.60668 0.0765084" fill="#3A414A" fill-rule="nonzero" fill-opacity="1" transform="matrix(1 0 0 1.00126 459.17 185.203)"/><path d="M3.3855-3.63415C3.19423-1.24326 4.16971 1.97009 1.28152 1.35802 0.841592 1.24326 0.554686 0.975482 0.439923 0.535559L1.05199 0.439923C1.3389 1.3389 2.9647 1.05199 2.7543-0.0956355L2.7543-0.669449C2.5439-0.267779 2.19962 0.0191271 1.58755 0.0191271 0.554686 0.0191271 0.286907-0.765084 0.286907-1.81707 0.286907-2.88819 0.59294-3.6724 1.64493-3.69153 2.19962-3.71066 2.56303-3.3855 2.77343-3.02208 2.79256-3.21335 2.77343-3.46201 2.81168-3.63415L3.3855-3.63415ZM1.79795-0.420796C2.48652-0.420796 2.7543-1.03286 2.7543-1.81707 2.7543-2.62041 2.48652-3.25161 1.79795-3.25161 1.05199-3.25161 0.918101-2.60129 0.918101-1.81707 0.918101-1.03286 1.03286-0.420796 1.79795-0.420796" fill="#3A414A" fill-rule="nonzero" fill-opacity="1" transform="matrix(1 0 0 1.00126 462.996 185.203)"/><path d="M2.69692-0.688576C2.41001-0.286907 2.10398 0.0956355 1.39628 0.0765084 0.707703 0.0573813 0.286907-0.325161 0.286907-1.01374 0.267779-2.23787 1.49191-2.21874 2.67779-2.21874 2.73518-2.88819 2.50565-3.25161 1.89358-3.25161 1.43453-3.23248 1.10937-3.11772 1.09024-2.65867L0.45905-2.71605C0.554686-3.42375 1.09024-3.71066 1.91271-3.71066 2.77343-3.71066 3.28986-3.32812 3.28986-2.48652L3.28986-0.918101C3.27073-0.535559 3.42375-0.306034 3.82542-0.401669L3.82542-0.0191271C3.23248 0.153017 2.65867-0.0573813 2.69692-0.688576ZM0.918101-1.01374C0.918101-0.631194 1.14763-0.382542 1.53017-0.382542 2.31438-0.439923 2.73518-0.937228 2.67779-1.79795 1.85533-1.75969 0.918101-1.89358 0.918101-1.01374" fill="#3A414A" fill-rule="nonzero" fill-opacity="1" transform="matrix(1 0 0 1.00126 466.821 185.203)"/><path d="M0.573813-4.74352C2.23787-4.72439 4.22709-5.03043 4.22709-3.30899 4.22709-1.81707 2.7543-1.77882 1.20501-1.85533L1.20501 0 0.573813 0 0.573813-4.74352ZM1.20501-2.35263C2.29525-2.35263 3.57677-2.14224 3.57677-3.30899 3.57677-4.43749 2.27613-4.20796 1.20501-4.22709L1.20501-2.35263" fill="#3A414A" fill-rule="nonzero" fill-opacity="1" transform="matrix(1 0 0 1.00126 470.646 185.203)"/><path d="M0.45905 0 0.45905-4.99217 1.07112-4.99217 1.07112 0 0.45905 0" fill="#3A414A" fill-rule="nonzero" fill-opacity="1" transform="matrix(1 0 0 1.00126 475.237 185.203)"/><path d="M2.69692-0.688576C2.41001-0.286907 2.10398 0.0956355 1.39628 0.0765084 0.707703 0.0573813 0.286907-0.325161 0.286907-1.01374 0.267779-2.23787 1.49191-2.21874 2.67779-2.21874 2.73518-2.88819 2.50565-3.25161 1.89358-3.25161 1.43453-3.23248 1.10937-3.11772 1.09024-2.65867L0.45905-2.71605C0.554686-3.42375 1.09024-3.71066 1.91271-3.71066 2.77343-3.71066 3.28986-3.32812 3.28986-2.48652L3.28986-0.918101C3.27073-0.535559 3.42375-0.306034 3.82542-0.401669L3.82542-0.0191271C3.23248 0.153017 2.65867-0.0573813 2.69692-0.688576ZM0.918101-1.01374C0.918101-0.631194 1.14763-0.382542 1.53017-0.382542 2.31438-0.439923 2.73518-0.937228 2.67779-1.79795 1.85533-1.75969 0.918101-1.89358 0.918101-1.01374" fill="#3A414A" fill-rule="nonzero" fill-opacity="1" transform="matrix(1 0 0 1.00126 476.748 185.203)"/><path d="M1.1285-0.898974C1.09024-0.439923 1.47279-0.344288 1.85533-0.478178L1.85533-0.0191271C1.22413 0.172144 0.516432 0.0765084 0.516432-0.765084L0.516432-3.19423 0.0956355-3.19423 0.0956355-3.63415 0.554686-3.63415 0.72683-4.45661 1.1285-4.45661 1.1285-3.63415 1.79795-3.63415 1.79795-3.19423 1.1285-3.19423 1.1285-0.898974" fill="#3A414A" fill-rule="nonzero" fill-opacity="1" transform="matrix(1 0 0 1.00126 480.573 185.203)"/><path d="M2.23787-3.71066C3.94018-3.78717 3.25161-1.49191 3.3855 0L2.77343 0 2.77343-2.31438C2.77343-2.90732 2.62041-3.25161 2.02747-3.23248 0.650321-3.19423 1.18588-1.28152 1.09024 0L0.478178 0 0.45905-3.63415 1.03286-3.63415C1.05199-3.44288 1.01374-3.1751 1.07112-3.02208 1.28152-3.44288 1.6258-3.69153 2.23787-3.71066" fill="#3A414A" fill-rule="nonzero" fill-opacity="1" transform="matrix(1 0 0 1.00126 482.486 185.203)"/><path d="M1.91271-3.71066C3.09859-3.72978 3.53851-3.00296 3.53851-1.81707 3.55764-0.612067 3.02208 0.0765084 1.89358 0.0765084 0.765084 0.0765084 0.306034-0.669449 0.286907-1.81707 0.286907-3.07946 0.822465-3.71066 1.91271-3.71066ZM1.89358-0.382542C2.73518-0.363415 2.90732-0.975482 2.90732-1.81707 2.90732-2.63954 2.7543-3.25161 1.93184-3.25161 1.10937-3.25161 0.918101-2.63954 0.918101-1.81707 0.918101-0.994609 1.10937-0.401669 1.89358-0.382542" fill="#3A414A" fill-rule="nonzero" fill-opacity="1" transform="matrix(1 0 0 1.00126 486.312 185.203)"/><path d="M2.58216-2.73518C2.52478-3.3855 0.937228-3.46201 0.918101-2.73518 1.20501-1.72144 3.11772-2.50565 3.19423-1.01374 3.27073 0.478178 0.325161 0.401669 0.191271-0.86072L0.72683-0.956355C0.803338-0.267779 2.58216-0.0956355 2.60129-0.956355 2.41001-2.02747 0.439923-1.24326 0.344288-2.67779 0.267779-3.76804 1.91271-3.8828 2.67779-3.48113 2.90732-3.34724 3.07946-3.11772 3.13684-2.81168" fill="#3A414A" fill-rule="nonzero" fill-opacity="1" transform="matrix(1 0 0 1.00126 490.137 185.203)"/><path d="M1.8362-3.23248C1.07112-3.23248 0.918101-2.60129 0.918101-1.8362 0.918101-1.07112 1.09024-0.401669 1.8362-0.401669 2.29525-0.401669 2.62041-0.669449 2.65867-1.1285L3.27073-1.09024C3.15597-0.382542 2.67779 0.0765084 1.85533 0.0765084 0.72683 0.0765084 0.401669-0.707703 0.286907-1.81707 0.0956355-3.5959 2.21874-4.32273 3.09859-3.04121 3.1751-2.90732 3.19423-2.77343 3.23248-2.62041L2.62041-2.56303C2.5439-2.9647 2.31438-3.23248 1.8362-3.23248" fill="#3A414A" fill-rule="nonzero" fill-opacity="1" transform="matrix(1 0 0 1.00126 493.58 185.203)"/><path d="M0.45905-4.41836 0.45905-4.99217 1.07112-4.99217 1.07112-4.41836 0.45905-4.41836ZM0.45905 0 0.45905-3.63415 1.07112-3.63415 1.07112 0 0.45905 0" fill="#3A414A" fill-rule="nonzero" fill-opacity="1" transform="matrix(1 0 0 1.00126 497.023 185.203)"/><path d="M1333.17 325.352 1337.45 325.352M1341.73 325.352 1350.27 325.352M1354.55 325.352 1363.11 325.352M1367.38 325.352 1375.94 325.352M1380.21 325.352 1384.49 325.352" stroke="#3A414A" stroke-width="0.774648" stroke-linecap="butt" stroke-linejoin="miter" stroke-miterlimit="4" stroke-opacity="1" fill="none" fill-rule="nonzero" transform="matrix(1 0 0 1.00126 -952.43 -271.08)"/><path d="M1333.18 325.732 1332.78 325.732 1332.78 324.965 1333.18 324.965Z" stroke="#3A414A" stroke-width="0.0193662" stroke-linecap="butt" stroke-linejoin="miter" stroke-miterlimit="4" stroke-opacity="1" fill="#3A414A" fill-rule="nonzero" fill-opacity="1" transform="matrix(1 0 0 1.00126 -952.43 -271.08)"/><path d="M1393.22 325.352 1384.88 330.283 1384.88 320.421Z" stroke="#3A414A" stroke-width="0.774648" stroke-linecap="butt" stroke-linejoin="miter" stroke-miterlimit="4" stroke-opacity="1" fill="#FFFFFF" fill-rule="nonzero" fill-opacity="1" transform="matrix(1 0 0 1.00126 -952.43 -271.08)"/><path d="M1176.69 325.352 1172.41 325.352M1168.13 325.352 1159.59 325.352M1155.31 325.352 1146.75 325.352M1142.48 325.352 1133.92 325.352M1129.65 325.352 1125.37 325.352" stroke="#3A414A" stroke-width="0.774648" stroke-linecap="butt" stroke-linejoin="miter" stroke-miterlimit="4" stroke-opacity="1" fill="none" fill-rule="nonzero" transform="matrix(1 0 0 1.00126 -952.43 -271.08)"/><path d="M1177.08 325.732 1176.68 325.732 1176.68 324.965 1177.08 324.965Z" stroke="#3A414A" stroke-width="0.0193662" stroke-linecap="butt" stroke-linejoin="miter" stroke-miterlimit="4" stroke-opacity="1" fill="#3A414A" fill-rule="nonzero" fill-opacity="1" transform="matrix(1 0 0 1.00126 -952.43 -271.08)"/><path d="M1116.64 325.352 1124.97 320.421 1124.97 330.283Z" stroke="#3A414A" stroke-width="0.774648" stroke-linecap="butt" stroke-linejoin="miter" stroke-miterlimit="4" stroke-opacity="1" fill="#FFFFFF" fill-rule="nonzero" fill-opacity="1" transform="matrix(1 0 0 1.00126 -952.43 -271.08)"/><path d="M1177.37 371.417 1175.01 374.786M1172.65 378.144 1167.92 384.868M1165.55 388.238 1160.83 394.958M1158.46 398.328 1153.74 405.052M1151.37 408.414 1146.64 415.142M1144.28 418.511 1139.55 425.231M1137.19 428.601 1132.46 435.321M1130.1 438.683 1125.37 445.411M1123.01 448.773 1120.64 452.135" stroke="#3A414A" stroke-width="0.774648" stroke-linecap="butt" stroke-linejoin="miter" stroke-miterlimit="4" stroke-opacity="1" fill="none" fill-rule="nonzero" transform="matrix(1 0 0 1.00126 -952.43 -271.08)"/><path d="M1177.59 371.103 1177.85 371.397 1177.67 371.645 1177.05 371.207 1177.38 370.743Z" stroke="#3A414A" stroke-width="0.0193662" stroke-linecap="butt" stroke-linejoin="miter" stroke-miterlimit="4" stroke-opacity="1" fill="#3A414A" fill-rule="nonzero" fill-opacity="1" transform="matrix(1 0 0 1.00126 -952.43 -271.08)"/><path d="M1115.62 459.262 1116.38 449.61 1124.45 455.284Z" stroke="#3A414A" stroke-width="0.774648" stroke-linecap="butt" stroke-linejoin="miter" stroke-miterlimit="4" stroke-opacity="1" fill="#FFFFFF" fill-rule="nonzero" fill-opacity="1" transform="matrix(1 0 0 1.00126 -952.43 -271.08)"/><path d="M1332 371.928 1334.38 374.848M1336.76 377.769 1341.52 383.617M1343.9 386.534 1348.65 392.382M1351.04 395.303 1355.79 401.151M1358.18 404.076 1362.93 409.924M1365.32 412.845 1370.07 418.686M1372.45 421.61 1377.22 427.458M1379.59 430.375 1384.35 436.224M1386.73 439.144 1389.11 442.068" stroke="#3A414A" stroke-width="0.774648" stroke-linecap="butt" stroke-linejoin="miter" stroke-miterlimit="4" stroke-opacity="1" fill="none" fill-rule="nonzero" transform="matrix(1 0 0 1.00126 -952.43 -271.08)"/><path d="M1332.3 371.695 1331.72 372.172 1331.45 371.839 1331.67 371.703 1331.99 371.424 1332.03 371.37Z" stroke="#3A414A" stroke-width="0.0193662" stroke-linecap="butt" stroke-linejoin="miter" stroke-miterlimit="4" stroke-opacity="1" fill="#3A414A" fill-rule="nonzero" fill-opacity="1" transform="matrix(1 0 0 1.00126 -952.43 -271.08)"/><path d="M1394.61 448.831 1385.53 445.485 1393.17 439.26Z" stroke="#3A414A" stroke-width="0.774648" stroke-linecap="butt" stroke-linejoin="miter" stroke-miterlimit="4" stroke-opacity="1" fill="#FFFFFF" fill-rule="nonzero" fill-opacity="1" transform="matrix(1 0 0 1.00126 -952.43 -271.08)"/><path d="M1019.39 480.32C1019.64 481.645 1020.8 482.606 1022.15 482.606L1043.45 482.606C1044.73 482.606 1045.77 483.648 1045.77 484.93L1045.77 508.944C1045.77 510.226 1044.73 511.268 1043.45 511.268L978.38 511.268C977.098 511.268 976.056 510.226 976.056 508.944L976.056 474.859C976.056 473.577 977.098 472.535 978.38 472.535L1015.56 472.535C1016.91 472.535 1018.07 473.496 1018.32 474.82ZM976.056 482.606 1019.82 482.606" stroke="#282C33" stroke-width="0.774648" stroke-linecap="butt" stroke-linejoin="miter" stroke-miterlimit="4" stroke-opacity="1" fill="#FFFFFF" fill-rule="nonzero" fill-opacity="1" transform="matrix(1 0 0 1.00126 -952.43 -271.08)"/><path d="M3.92106 0 3.3855-1.37715 1.22413-1.37715 0.688576 0 0.0191271 0 1.95096-4.74352 2.67779-4.74352 4.57138 0 3.92106 0ZM3.19423-1.89358 2.29525-4.24622C2.06573-3.3855 1.70231-2.67779 1.41541-1.89358L3.19423-1.89358" fill="#3A414A" fill-rule="nonzero" fill-opacity="1" transform="matrix(1 0 0 1.00126 26.7254 208.472)"/><path d="M0.573813-4.74352C2.23787-4.72439 4.22709-5.03043 4.22709-3.30899 4.22709-1.81707 2.7543-1.77882 1.20501-1.85533L1.20501 0 0.573813 0 0.573813-4.74352ZM1.20501-2.35263C2.29525-2.35263 3.57677-2.14224 3.57677-3.30899 3.57677-4.43749 2.27613-4.20796 1.20501-4.22709L1.20501-2.35263" fill="#3A414A" fill-rule="nonzero" fill-opacity="1" transform="matrix(1 0 0 1.00126 31.3159 208.472)"/><path d="M0.631194 0 0.631194-4.74352 1.28152-4.74352 1.28152 0 0.631194 0" fill="#3A414A" fill-rule="nonzero" fill-opacity="1" transform="matrix(1 0 0 1.00126 35.9064 208.472)"/></g></g></svg>